<?xml version="1.0" encoding="utf-8"?>
<!-- Generator: Adobe Illustrator 28.1.0, SVG Export Plug-In . SVG Version: 6.00 Build 0)  -->
<svg version="1.1" id="Layer_1" xmlns="http://www.w3.org/2000/svg" xmlns:xlink="http://www.w3.org/1999/xlink" x="0px" y="0px"
	 viewBox="0 0 50 50" style="enable-background:new 0 0 50 50;" xml:space="preserve">
<style type="text/css">
	.st0{fill:#FCCC12;}
	.st1{fill:#0A0909;}
	.st2{fill:#FFFFFF;}
	.st3{fill:#FEFEFD;}
	.st4{fill:#100F0F;}
	.st5{fill:#0E0E0D;}
	.st6{fill:#101010;}
	.st7{fill:#111111;}
	.st8{fill:#131312;}
	.st9{fill:#121111;}
	.st10{fill:#121212;}
	.st11{fill:#0A0A09;}
	.st12{fill:#0B0A0A;}
	.st13{fill:#090908;}
	.st14{fill:#16857D;}
	.st15{fill:#DEDEDC;}
	.st16{fill:#1B1A19;}
	.st17{fill:#090808;}
	.st18{fill:#080808;}
	.st19{fill:#0C0C0B;}
	.st20{fill:#070707;}
	.st21{fill:#525351;}
	.st22{fill:#93928E;}
	.st23{fill:#1F1F1E;}
	.st24{fill:#222120;}
	.st25{fill:#161515;}
	.st26{fill:#151514;}
	.st27{fill:#1A1919;}
	.st28{fill:#161615;}
	.st29{fill:#1C1B1B;}
	.st30{fill:#1D1C1C;}
	.st31{fill:#151414;}
	.st32{fill:#2A2928;}
	.st33{fill:#201F1F;}
	.st34{fill:#171717;}
	.st35{fill:#EE5179;}
	.st36{fill:#2F1E8A;}
</style>
<g>
	<path class="st0" d="M49.98,25c0,8.11-0.01,16.21,0.02,24.32c0,0.66-0.13,0.8-0.8,0.8c-16.14-0.02-32.27-0.02-48.41,0
		c-0.66,0-0.8-0.13-0.8-0.8C0.02,33.11,0.02,16.89,0,0.68c0-0.66,0.13-0.8,0.8-0.8c16.14,0.02,32.27,0.02,48.41,0
		c0.66,0,0.8,0.13,0.8,0.8C49.97,8.79,49.98,16.89,49.98,25z"/>
	<path class="st1" d="M17.34,23.13c-1.43,2.02-3.52,2.35-4.95,0.86c-0.31-0.32-0.57-0.68-0.64-1.13c-0.05-0.31-0.49-0.71,0.06-0.92
		c0.53-0.2,0.59,0.2,0.73,0.63c0.31,0.98,1.07,1.55,2.09,1.49c0.95-0.06,1.63-0.63,1.91-1.59c0.38-1.29-0.61-2.5-2.11-2.57
		c-2.79-0.14-4.77-1.8-5.37-4.53c-0.71-3.21,1.73-6.46,5.01-6.57c0.86-0.03,0.96-0.21,0.89-1.05c-0.22-2.66-0.74-2.55,2.21-2.54
		c5.51,0.01,11.02,0,16.53,0c1.29,0,1.39,0.12,1.25,1.4c-0.07,0.62-0.32,1.32-0.13,1.86c0.25,0.7,1.09,0.23,1.66,0.38
		c2.76,0.71,4.68,3.28,4.39,5.97c-0.31,2.87-2.54,4.93-5.49,5.08c-1.25,0.06-2.08,0.78-2.21,1.9c-0.1,0.94,0.63,1.92,1.65,2.21
		c1.02,0.28,2.11-0.35,2.45-1.53c0.13-0.45,0.27-0.67,0.7-0.54c0.51,0.16,0.19,0.53,0.12,0.8c-0.34,1.23-1.14,1.93-2.4,2.12
		c-1.28,0.2-2.23-0.29-3.23-1.72c-1.24,2.08-3.05,3.39-5.33,4.03c-0.47,0.13-0.4,0.44-0.4,0.76c0,1.33,0.01,2.66-0.01,3.99
		c0,0.39,0.1,0.72,0.31,1.04c0.33,0.49,0.73,0.95,0.96,1.48c0.88,1.98,2.19,3.06,4.5,2.61c0.88-0.17,1.38,0.39,1.39,1.3
		c0.01,2,0,3.99,0.01,5.99c0,0.51-0.19,0.72-0.72,0.72c-5.51-0.01-11.02-0.01-16.53,0c-0.55,0-0.68-0.23-0.67-0.73
		c0.02-2.03,0.01-4.07,0.01-6.1c0-0.85,0.49-1.34,1.24-1.18c2.49,0.53,3.54-0.97,4.8-2.76c1.53-2.17,0.88-4.46,1.07-6.71
		c0.03-0.31-0.2-0.35-0.41-0.41C20.38,26.51,18.59,25.19,17.34,23.13z"/>
	<path class="st2" d="M31.94,22.15c-0.81,1.63-1.98,2.75-3.56,3.61c-0.08-0.42,0.12-0.96-0.5-1.03c-0.28-0.03-0.51,0.03-0.66,0.29
		c-0.29,0.52,0.18,0.7,0.47,1.02c-2.15,0.83-4.35,0.87-6.23-0.34c-1.18-0.76-2.56-1.44-3.3-2.86c-0.72-1.37-1.08-2.8-1.24-4.31
		c-0.41-3.93-0.79-7.85-1.24-11.77c-0.07-0.58,0.05-0.71,0.58-0.71c5.73,0.01,11.46,0.01,17.19,0c0.47,0,0.74,0.04,0.64,0.67
		c-0.19,1.2-0.23,2.42-0.4,3.63c-0.07,0.49,0.11,1.12-0.66,1.34c-0.38,0.11-0.37,0.69-0.13,0.83c0.66,0.39,0.49,0.97,0.37,1.44
		c-0.58,2.26-0.16,4.63-0.84,6.87c-0.1,0.33-0.06,1.02-0.61,0.21c-0.11-0.16-0.49-0.12-0.73,0.05c-0.24,0.17-0.3,0.42-0.2,0.69
		C31.08,22.23,31.51,22.1,31.94,22.15z"/>
	<path class="st0" d="M33.61,19.45c0.3-3.02,0.6-5.88,0.88-8.74c0.08-0.81,0.29-1.2,1.28-1.07c2.39,0.31,4.22,2.29,4.2,4.75
		c-0.02,2.35-1.94,4.46-4.24,4.59C35.02,19.02,34.35,19.11,33.61,19.45z"/>
	<path class="st0" d="M16.19,19.46c-0.73-0.31-1.34-0.46-2.02-0.48c-2.48-0.09-4.44-2.3-4.37-4.89c0.06-2.42,2.24-4.47,4.69-4.49
		c0.77-0.01,0.71,0.5,0.76,0.93c0.26,2.34,0.49,4.68,0.73,7.02C16.05,18.14,16.11,18.72,16.19,19.46z"/>
	<path class="st3" d="M28.39,37c-2.33,0-4.65,0-7.17,0c0.61-0.97,1.1-1.89,1.73-2.71c0.72-0.93,1.02-1.92,0.93-3.08
		c-0.07-0.85,0.06-1.71-0.03-2.55c-0.12-1.04,0.27-1.33,1.26-1.25c0.59,0.05,0.89,0.13,0.81,0.79c-0.39,3.25,0.23,6.2,2.75,8.61
		C28.57,36.87,28.48,36.94,28.39,37z"/>
	<path class="st4" d="M28.38,17.81c-0.07,0.37-0.24,0.6-0.66,0.57c-0.4-0.03-0.62-0.26-0.59-0.62c0.03-0.35,0.25-0.57,0.66-0.56
		C28.24,17.2,28.33,17.48,28.38,17.81z"/>
	<path class="st5" d="M26.48,19.68c0.01,0.42-0.26,0.62-0.61,0.6c-0.35-0.01-0.58-0.24-0.57-0.65c0.01-0.42,0.28-0.62,0.62-0.61
		C26.27,19.04,26.51,19.28,26.48,19.68z"/>
	<path class="st6" d="M30.23,19.76c-0.04,0.32-0.28,0.57-0.63,0.55c-0.34-0.02-0.58-0.26-0.55-0.67c0.03-0.39,0.26-0.63,0.62-0.6
		C30.01,19.06,30.26,19.3,30.23,19.76z"/>
	<path class="st6" d="M27.76,22.14c-0.4,0.01-0.63-0.25-0.63-0.59c0-0.36,0.23-0.58,0.63-0.59c0.41-0.01,0.62,0.23,0.61,0.59
		C28.37,21.9,28.18,22.17,27.76,22.14z"/>
	<path class="st7" d="M30.24,15.81c-0.02,0.5-0.24,0.73-0.6,0.74c-0.37,0-0.58-0.24-0.59-0.63c-0.01-0.41,0.24-0.63,0.59-0.62
		C29.96,15.32,30.27,15.49,30.24,15.81z"/>
	<path class="st6" d="M24.06,20.96c0.36,0.03,0.64,0.19,0.6,0.6c-0.04,0.35-0.23,0.59-0.64,0.58c-0.43,0-0.58-0.26-0.58-0.62
		C23.44,21.14,23.65,20.92,24.06,20.96z"/>
	<path class="st8" d="M22.73,23.25c0.04,0.56-0.22,0.79-0.57,0.78c-0.32-0.01-0.62-0.19-0.62-0.61c0-0.41,0.26-0.6,0.6-0.63
		C22.54,22.75,22.69,23.05,22.73,23.25z"/>
	<path class="st9" d="M30.24,23.44c0,0.42-0.31,0.59-0.63,0.59c-0.35,0-0.6-0.24-0.56-0.65c0.04-0.37,0.23-0.63,0.62-0.59
		C30.02,22.83,30.27,23.04,30.24,23.44z"/>
	<path class="st10" d="M24.68,25.26c-0.07,0.35-0.2,0.62-0.61,0.64c-0.41,0.02-0.6-0.22-0.63-0.58c-0.03-0.39,0.17-0.61,0.57-0.61
		C24.38,24.71,24.61,24.9,24.68,25.26z"/>
	<path class="st11" d="M26.49,23.44c0,0.43-0.29,0.61-0.64,0.58c-0.29-0.02-0.54-0.2-0.54-0.58c0-0.42,0.22-0.64,0.59-0.65
		C26.29,22.78,26.48,23.05,26.49,23.44z"/>
	<path class="st12" d="M31.49,14.63c-0.33-0.03-0.61-0.18-0.6-0.59c0.01-0.39,0.21-0.61,0.62-0.6c0.42,0.01,0.55,0.28,0.56,0.65
		C32.07,14.46,31.86,14.61,31.49,14.63z"/>
	<path class="st13" d="M32.06,17.82c0,0.34-0.15,0.55-0.51,0.55c-0.37,0-0.64-0.14-0.66-0.55c-0.02-0.41,0.21-0.59,0.6-0.61
		C31.91,17.19,32.05,17.44,32.06,17.82z"/>
</g>
</svg>
