<?xml version="1.0" encoding="utf-8"?>
<!-- Generator: Adobe Illustrator 28.1.0, SVG Export Plug-In . SVG Version: 6.00 Build 0)  -->
<svg version="1.1" id="Layer_1" xmlns="http://www.w3.org/2000/svg" xmlns:xlink="http://www.w3.org/1999/xlink" x="0px" y="0px"
	 viewBox="0 0 50 50" style="enable-background:new 0 0 50 50;" xml:space="preserve">
<style type="text/css">
	.st0{fill:#FCCC12;}
	.st1{fill:#0A0909;}
	.st2{fill:#FFFFFF;}
	.st3{fill:#FEFEFD;}
	.st4{fill:#100F0F;}
	.st5{fill:#0E0E0D;}
	.st6{fill:#101010;}
	.st7{fill:#111111;}
	.st8{fill:#131312;}
	.st9{fill:#121111;}
	.st10{fill:#121212;}
	.st11{fill:#0A0A09;}
	.st12{fill:#0B0A0A;}
	.st13{fill:#090908;}
	.st14{fill:#16857D;}
	.st15{fill:#DEDEDC;}
	.st16{fill:#1B1A19;}
	.st17{fill:#090808;}
	.st18{fill:#080808;}
	.st19{fill:#0C0C0B;}
	.st20{fill:#070707;}
	.st21{fill:#525351;}
	.st22{fill:#93928E;}
	.st23{fill:#1F1F1E;}
	.st24{fill:#222120;}
	.st25{fill:#161515;}
	.st26{fill:#151514;}
	.st27{fill:#1A1919;}
	.st28{fill:#161615;}
	.st29{fill:#1C1B1B;}
	.st30{fill:#1D1C1C;}
	.st31{fill:#151414;}
	.st32{fill:#2A2928;}
	.st33{fill:#201F1F;}
	.st34{fill:#171717;}
	.st35{fill:#EE5179;}
	.st36{fill:#2F1E8A;}
</style>
<g>
	<path class="st35" d="M50,50c-16.67,0-33.33,0-50,0C0,33.33,0,16.67,0,0c16.67,0,33.33,0,50,0C50,16.67,50,33.33,50,50z M8.78,41.6
		c-1.11,0.71-2.16,1.37-3.2,2.05c-0.66,0.43-0.87,0.9-0.66,1.45c0.23,0.61,0.72,0.78,1.35,0.78c9.44-0.02,18.87-0.02,28.31-0.03
		c1.32,0,1.66-0.35,1.66-1.66c0.01-5.62,0.02-11.25,0.02-16.87c0-0.45,0.11-0.74,0.53-1c2.86-1.77,5.7-3.59,8.55-5.39
		c2.05-1.29,2.57-3.47,1.27-5.49c-1.82-2.81-3.65-5.61-5.51-8.41c-1.31-1.98-3.4-2.42-5.43-1.16c-3.53,2.2-7.05,4.42-10.58,6.63
		c-1.25,0.78-2.49,1.56-3.78,2.37c-0.75-1.49-1.47-2.92-2.18-4.34c-0.74-1.47-1.45-2.95-2.21-4.4c-0.45-0.86-1.5-0.94-1.96-0.16
		c-0.16,0.27-0.22,0.63-0.22,0.95c-0.01,3.85-0.01,7.71,0,11.56c0,0.37-0.1,0.6-0.43,0.8c-1.3,0.78-2.58,1.61-3.86,2.42
		c-1.69,1.06-3.39,2.12-5.07,3.19c-0.77,0.49-0.77,1.43-0.02,1.96c0.17,0.12,0.36,0.22,0.53,0.33c0.94,0.6,1.87,1.2,2.88,1.84
		c-1.2,0.76-2.3,1.46-3.4,2.17c-0.61,0.4-0.77,1.16-0.33,1.67c0.19,0.21,0.44,0.37,0.69,0.53c0.99,0.64,1.99,1.26,3.05,1.93
		c-1.12,0.71-2.17,1.37-3.21,2.06c-1.07,0.7-1.02,1.6,0.08,2.27C6.67,40.26,7.68,40.91,8.78,41.6z"/>
	<path d="M8.78,41.6c-1.1-0.69-2.11-1.35-3.13-1.97c-1.1-0.67-1.15-1.56-0.08-2.27c1.04-0.69,2.1-1.34,3.21-2.06
		c-1.05-0.67-2.05-1.29-3.05-1.93c-0.24-0.16-0.5-0.32-0.69-0.53c-0.44-0.5-0.28-1.27,0.33-1.67c1.1-0.71,2.2-1.41,3.4-2.17
		c-1.01-0.65-1.94-1.24-2.88-1.84c-0.18-0.11-0.36-0.21-0.53-0.33c-0.75-0.53-0.75-1.47,0.02-1.96c1.68-1.08,3.38-2.13,5.07-3.19
		c1.29-0.81,2.56-1.63,3.86-2.42c0.33-0.2,0.44-0.42,0.43-0.8c-0.01-3.85-0.01-7.71,0-11.56c0-0.32,0.06-0.68,0.22-0.95
		c0.46-0.78,1.51-0.7,1.96,0.16c0.76,1.45,1.47,2.93,2.21,4.4c0.72,1.43,1.43,2.86,2.18,4.34c1.29-0.81,2.53-1.59,3.78-2.37
		c3.52-2.21,7.04-4.43,10.58-6.63c2.02-1.26,4.12-0.81,5.43,1.16c1.85,2.79,3.69,5.59,5.51,8.41c1.3,2.01,0.78,4.19-1.27,5.49
		c-2.85,1.8-5.69,3.62-8.55,5.39c-0.42,0.26-0.53,0.55-0.53,1c0,5.62-0.01,11.25-0.02,16.87c0,1.32-0.34,1.66-1.66,1.66
		c-9.44,0.01-18.87,0.01-28.31,0.03c-0.63,0-1.11-0.16-1.35-0.78c-0.21-0.55,0.01-1.02,0.66-1.45C6.62,42.97,7.67,42.31,8.78,41.6z
		 M43.01,13.96c-2.54,1.61-4.98,3.17-7.42,4.71c-0.66,0.42-1.29,0.33-1.64-0.21c-0.38-0.57-0.2-1.18,0.5-1.63
		c1.42-0.91,2.85-1.81,4.27-2.71c1.03-0.65,2.05-1.31,3.1-1.98c-0.9-1.38-1.74-2.69-2.62-3.98c-0.59-0.86-1.38-1-2.28-0.44
		c-6.49,4.03-12.98,8.06-19.48,12.07c-0.38,0.24-0.45,0.52-0.45,0.92c0.01,7.37,0.01,14.75,0.01,22.12c0,0.24,0,0.49,0,0.75
		c5.71,0,11.34,0,17.02,0c0-0.28,0-0.5,0-0.73c0.01-5.5,0.03-11,0.03-16.5c0-0.66,0.22-1.09,0.79-1.43c1.07-0.64,2.11-1.33,3.17-2
		c2.08-1.31,4.15-2.62,6.23-3.94c0.83-0.53,1.14-1.28,0.73-2.01C44.37,15.96,43.68,15,43.01,13.96z M8.01,32.14
		c0.24,0.17,0.4,0.29,0.57,0.4c0.86,0.55,1.73,1.08,2.59,1.63c1.16,0.75,1.15,1.52-0.03,2.28c-1.03,0.66-2.06,1.31-3.15,2.01
		c1.11,0.7,2.15,1.35,3.18,2.01c1.14,0.72,1.14,1.51,0.02,2.23c-0.42,0.27-0.83,0.55-1.34,0.89c1.74,0,3.33,0,4.9,0
		c0-7.35,0-14.65,0-22.04C12.47,23,10.27,24.4,8,25.85c0.28,0.19,0.47,0.32,0.65,0.44c0.93,0.59,1.88,1.16,2.8,1.77
		c0.71,0.47,0.75,1.25,0.13,1.79c-0.17,0.15-0.38,0.26-0.57,0.38C10.04,30.85,9.06,31.47,8.01,32.14z"/>
	<path class="st2" d="M43.01,13.96c0.67,1.04,1.36,2,1.94,3.03c0.42,0.73,0.1,1.48-0.73,2.01c-2.07,1.32-4.15,2.63-6.23,3.94
		c-1.06,0.67-2.1,1.36-3.17,2c-0.57,0.34-0.79,0.77-0.79,1.43c0,5.5-0.02,11-0.03,16.5c0,0.23,0,0.45,0,0.73
		c-5.68,0-11.31,0-17.02,0c0-0.26,0-0.51,0-0.75c0-7.37,0-14.75-0.01-22.12c0-0.4,0.07-0.69,0.45-0.92
		c6.5-4.02,12.99-8.05,19.48-12.07c0.9-0.56,1.69-0.42,2.28,0.44c0.88,1.29,1.72,2.6,2.62,3.98c-1.05,0.67-2.07,1.32-3.1,1.98
		c-1.42,0.91-2.85,1.8-4.27,2.71c-0.7,0.45-0.88,1.05-0.5,1.63c0.35,0.54,0.98,0.63,1.64,0.21C38.03,17.13,40.47,15.57,43.01,13.96z
		 M22.95,22.41c0.71-0.01,1.27-0.56,1.28-1.25c0.01-0.73-0.57-1.32-1.29-1.31c-0.75,0-1.3,0.55-1.29,1.29
		C21.65,21.89,22.19,22.42,22.95,22.41z M21.86,42.44c-0.42-0.3-0.67-0.63-0.9-0.61c-0.23,0.02-0.57,0.35-0.62,0.59
		c-0.09,0.38,0.21,0.71,0.62,0.65C21.22,43.03,21.44,42.74,21.86,42.44z M26.88,42.6c0-0.09,0.01-0.19,0.01-0.28
		c-0.23-0.18-0.44-0.47-0.69-0.51c-0.38-0.06-0.72,0.23-0.64,0.63c0.05,0.25,0.37,0.58,0.6,0.61C26.37,43.08,26.64,42.77,26.88,42.6
		z M23.54,41.51c-0.29,0.43-0.56,0.66-0.6,0.93c-0.07,0.42,0.29,0.69,0.65,0.62c0.23-0.05,0.54-0.41,0.56-0.65
		C24.16,42.18,23.84,41.93,23.54,41.51z M29.92,40.55c0.09,0,0.19,0.01,0.28,0.01c0.18-0.24,0.51-0.49,0.49-0.71
		c-0.02-0.24-0.37-0.45-0.57-0.68c-0.22,0.21-0.57,0.39-0.61,0.63C29.47,40.02,29.77,40.3,29.92,40.55z M19.24,42.44
		c-0.42-0.31-0.67-0.63-0.89-0.61c-0.24,0.02-0.58,0.34-0.63,0.59c-0.09,0.39,0.22,0.71,0.62,0.65
		C18.59,43.03,18.82,42.75,19.24,42.44z M28.79,41.52c-0.3,0.41-0.62,0.66-0.61,0.89c0.02,0.24,0.32,0.59,0.56,0.65
		c0.38,0.09,0.71-0.22,0.66-0.62C29.37,42.17,29.09,41.94,28.79,41.52z M22.4,33.88c-0.56,0.11-0.84,0.34-0.75,0.72
		c0.06,0.25,0.39,0.43,0.6,0.64c0.21-0.21,0.55-0.4,0.59-0.64C22.87,34.38,22.56,34.12,22.4,33.88z M31.99,39.65
		c0,0.1-0.01,0.19-0.01,0.29c0.24,0.17,0.49,0.5,0.7,0.47c0.24-0.03,0.45-0.37,0.67-0.57c-0.21-0.22-0.39-0.58-0.63-0.63
		C32.51,39.18,32.23,39.5,31.99,39.65z M18.49,31.26c-0.1,0-0.2,0-0.3,0c-0.16,0.23-0.47,0.48-0.45,0.7
		c0.02,0.23,0.32,0.57,0.56,0.63c0.4,0.11,0.69-0.21,0.64-0.61C18.91,31.73,18.65,31.5,18.49,31.26z M19.81,33.88
		c-0.1,0-0.2,0-0.31-0.01c-0.17,0.24-0.49,0.49-0.46,0.71c0.03,0.24,0.34,0.56,0.59,0.62c0.36,0.09,0.67-0.2,0.61-0.58
		C20.2,34.36,19.96,34.12,19.81,33.88z M26.89,37.34c0-0.1,0-0.2-0.01-0.29c-0.25-0.16-0.52-0.46-0.73-0.43
		c-0.23,0.04-0.59,0.41-0.58,0.61c0.02,0.23,0.37,0.56,0.61,0.59C26.4,37.84,26.65,37.51,26.89,37.34z M20.8,37.94
		c0.09,0,0.18,0,0.27,0.01c0.17-0.24,0.49-0.5,0.47-0.72c-0.02-0.23-0.35-0.55-0.59-0.61c-0.38-0.1-0.66,0.23-0.61,0.59
		C20.38,37.46,20.64,37.69,20.8,37.94z M19.48,40.56c0.09,0,0.18,0,0.27,0c0.17-0.24,0.44-0.46,0.49-0.72
		c0.08-0.41-0.24-0.71-0.61-0.64c-0.24,0.04-0.55,0.39-0.58,0.63C19.01,40.05,19.32,40.32,19.48,40.56z M18.48,36.48
		c-0.1,0-0.2,0-0.29-0.01c-0.16,0.24-0.48,0.5-0.45,0.72c0.03,0.24,0.37,0.44,0.58,0.66c0.22-0.21,0.57-0.4,0.61-0.64
		C18.96,37,18.64,36.73,18.48,36.48z M28.62,37.94c0.09,0,0.18,0,0.28,0.01c0.17-0.24,0.44-0.46,0.49-0.72
		c0.07-0.37-0.22-0.69-0.59-0.61c-0.25,0.05-0.59,0.36-0.62,0.59C28.15,37.42,28.46,37.69,28.62,37.94z M21.53,39.67
		c0,0.1,0,0.19-0.01,0.29c0.23,0.17,0.48,0.49,0.69,0.48c0.24-0.02,0.57-0.32,0.63-0.56c0.11-0.4-0.21-0.7-0.6-0.66
		C22,39.23,21.77,39.5,21.53,39.67z M25.78,39.79c-0.44-0.29-0.67-0.56-0.93-0.59c-0.39-0.04-0.7,0.27-0.59,0.67
		c0.07,0.24,0.41,0.55,0.64,0.56C25.13,40.44,25.37,40.11,25.78,39.79z M27.63,39.08c-0.09,0-0.18-0.01-0.26-0.01
		c-0.17,0.24-0.49,0.48-0.47,0.71c0.01,0.24,0.31,0.6,0.54,0.65c0.37,0.09,0.71-0.2,0.66-0.61C28.06,39.57,27.79,39.33,27.63,39.08z
		 M32.31,42.44c-0.43-0.31-0.65-0.6-0.91-0.63c-0.39-0.04-0.7,0.28-0.61,0.66c0.06,0.24,0.4,0.56,0.63,0.58
		C31.64,43.07,31.89,42.75,32.31,42.44z M23.46,37.95c0.09,0,0.17-0.01,0.26-0.01c0.15-0.25,0.4-0.49,0.44-0.75
		c0.04-0.38-0.25-0.68-0.62-0.57c-0.25,0.07-0.57,0.4-0.58,0.63C22.94,37.47,23.28,37.71,23.46,37.95z"/>
	<path class="st2" d="M8.01,32.14c1.05-0.67,2.03-1.29,3.01-1.92c0.19-0.12,0.4-0.24,0.57-0.38c0.62-0.53,0.57-1.32-0.13-1.79
		c-0.92-0.61-1.86-1.18-2.8-1.77C8.46,26.17,8.28,26.04,8,25.85c2.28-1.45,4.48-2.85,6.76-4.29c0,7.39,0,14.69,0,22.04
		c-1.57,0-3.16,0-4.9,0c0.51-0.34,0.92-0.62,1.34-0.89c1.12-0.72,1.12-1.51-0.02-2.23c-1.03-0.66-2.07-1.31-3.18-2.01
		c1.1-0.7,2.13-1.36,3.15-2.01c1.18-0.75,1.19-1.53,0.03-2.28c-0.86-0.55-1.72-1.09-2.59-1.63C8.41,32.43,8.25,32.31,8.01,32.14z"/>
	<path d="M22.95,22.41c-0.76,0.01-1.3-0.52-1.3-1.28c0-0.74,0.55-1.29,1.29-1.29c0.72,0,1.3,0.58,1.29,1.31
		C24.22,21.85,23.65,22.41,22.95,22.41z"/>
	<path d="M21.86,42.44c-0.42,0.31-0.64,0.59-0.91,0.63c-0.4,0.06-0.7-0.27-0.62-0.65c0.06-0.24,0.39-0.57,0.62-0.59
		C21.19,41.81,21.44,42.13,21.86,42.44z"/>
	<path d="M26.88,42.6c-0.24,0.16-0.51,0.48-0.72,0.45c-0.24-0.04-0.55-0.36-0.6-0.61c-0.08-0.4,0.26-0.69,0.64-0.63
		c0.25,0.04,0.46,0.33,0.69,0.51C26.89,42.42,26.88,42.51,26.88,42.6z"/>
	<path d="M23.54,41.51c0.3,0.42,0.62,0.67,0.6,0.9c-0.02,0.24-0.32,0.6-0.56,0.65c-0.36,0.08-0.72-0.2-0.65-0.62
		C22.98,42.18,23.24,41.95,23.54,41.51z"/>
	<path d="M29.92,40.55c-0.15-0.25-0.45-0.53-0.41-0.75c0.04-0.24,0.39-0.42,0.61-0.63c0.2,0.22,0.55,0.44,0.57,0.68
		c0.02,0.22-0.31,0.47-0.49,0.71C30.11,40.56,30.01,40.55,29.92,40.55z"/>
	<path d="M19.24,42.44c-0.42,0.31-0.65,0.59-0.91,0.63c-0.39,0.05-0.71-0.27-0.62-0.65c0.06-0.25,0.4-0.56,0.63-0.59
		C18.57,41.8,18.83,42.13,19.24,42.44z"/>
	<path d="M28.79,41.52c0.3,0.42,0.58,0.66,0.61,0.92c0.05,0.4-0.28,0.71-0.66,0.62c-0.24-0.05-0.55-0.41-0.56-0.65
		C28.17,42.18,28.49,41.93,28.79,41.52z"/>
	<path d="M22.4,33.88c0.16,0.24,0.47,0.5,0.44,0.71c-0.03,0.24-0.38,0.43-0.59,0.64c-0.21-0.21-0.54-0.39-0.6-0.64
		C21.56,34.22,21.84,33.98,22.4,33.88z"/>
	<path d="M31.99,39.65c0.25-0.16,0.52-0.48,0.73-0.44c0.24,0.04,0.42,0.4,0.63,0.63c-0.22,0.2-0.43,0.55-0.67,0.57
		c-0.21,0.02-0.47-0.3-0.7-0.47C31.98,39.85,31.98,39.75,31.99,39.65z"/>
	<path d="M18.49,31.26c0.16,0.24,0.42,0.46,0.45,0.72c0.05,0.4-0.24,0.71-0.64,0.61c-0.24-0.06-0.53-0.39-0.56-0.63
		c-0.02-0.22,0.29-0.47,0.45-0.7C18.29,31.26,18.39,31.26,18.49,31.26z"/>
	<path d="M19.81,33.88c0.15,0.24,0.4,0.48,0.43,0.74c0.06,0.39-0.25,0.68-0.61,0.58c-0.25-0.06-0.56-0.38-0.59-0.62
		c-0.03-0.21,0.29-0.47,0.46-0.71C19.6,33.88,19.7,33.88,19.81,33.88z"/>
	<path d="M26.89,37.34c-0.24,0.17-0.49,0.51-0.7,0.48c-0.24-0.03-0.6-0.37-0.61-0.59c-0.01-0.2,0.34-0.57,0.58-0.61
		c0.21-0.04,0.49,0.27,0.73,0.43C26.88,37.14,26.89,37.24,26.89,37.34z"/>
	<path d="M20.8,37.94c-0.16-0.25-0.42-0.48-0.46-0.74c-0.05-0.36,0.23-0.69,0.61-0.59c0.25,0.06,0.57,0.38,0.59,0.61
		c0.02,0.22-0.3,0.48-0.47,0.72C20.98,37.94,20.89,37.94,20.8,37.94z"/>
	<path d="M19.48,40.56c-0.16-0.24-0.47-0.51-0.44-0.73c0.03-0.24,0.35-0.59,0.58-0.63c0.37-0.07,0.7,0.23,0.61,0.64
		c-0.05,0.26-0.32,0.48-0.49,0.72C19.66,40.56,19.57,40.56,19.48,40.56z"/>
	<path d="M18.48,36.48c0.16,0.25,0.47,0.52,0.44,0.74c-0.04,0.24-0.39,0.43-0.61,0.64c-0.21-0.22-0.55-0.42-0.58-0.66
		c-0.03-0.22,0.29-0.48,0.45-0.72C18.29,36.48,18.39,36.48,18.48,36.48z"/>
	<path d="M28.62,37.94c-0.16-0.25-0.48-0.52-0.44-0.73c0.03-0.23,0.37-0.54,0.62-0.59c0.37-0.08,0.66,0.24,0.59,0.61
		c-0.05,0.26-0.32,0.48-0.49,0.72C28.81,37.94,28.72,37.94,28.62,37.94z"/>
	<path d="M21.53,39.67c0.24-0.16,0.47-0.44,0.72-0.46c0.39-0.04,0.71,0.26,0.6,0.66c-0.07,0.24-0.4,0.54-0.63,0.56
		c-0.21,0.02-0.46-0.3-0.69-0.48C21.53,39.86,21.53,39.76,21.53,39.67z"/>
	<path d="M25.78,39.79c-0.41,0.32-0.65,0.65-0.87,0.64c-0.23-0.01-0.57-0.32-0.64-0.56c-0.11-0.39,0.2-0.7,0.59-0.67
		C25.11,39.23,25.34,39.5,25.78,39.79z"/>
	<path d="M27.63,39.08c0.16,0.25,0.43,0.48,0.46,0.75c0.05,0.41-0.29,0.69-0.66,0.61c-0.23-0.06-0.53-0.42-0.54-0.65
		c-0.01-0.23,0.3-0.47,0.47-0.71C27.46,39.08,27.54,39.08,27.63,39.08z"/>
	<path d="M32.31,42.44c-0.42,0.31-0.67,0.64-0.89,0.62c-0.24-0.02-0.57-0.34-0.63-0.58c-0.09-0.38,0.22-0.71,0.61-0.66
		C31.66,41.84,31.88,42.13,32.31,42.44z"/>
	<path d="M23.46,37.95c-0.18-0.24-0.52-0.48-0.51-0.7c0.01-0.23,0.33-0.56,0.58-0.63c0.37-0.11,0.67,0.2,0.62,0.57
		c-0.03,0.26-0.28,0.5-0.44,0.75C23.63,37.94,23.55,37.94,23.46,37.95z"/>
</g>
</svg>
