<?xml version="1.0" encoding="utf-8"?>
<!-- Generator: Adobe Illustrator 28.1.0, SVG Export Plug-In . SVG Version: 6.00 Build 0)  -->
<svg version="1.1" id="Layer_1" xmlns="http://www.w3.org/2000/svg" xmlns:xlink="http://www.w3.org/1999/xlink" x="0px" y="0px"
	 viewBox="0 0 50 50" style="enable-background:new 0 0 50 50;" xml:space="preserve">
<style type="text/css">
	.st0{fill:#FCCC12;}
	.st1{fill:#0A0909;}
	.st2{fill:#FFFFFF;}
	.st3{fill:#FEFEFD;}
	.st4{fill:#100F0F;}
	.st5{fill:#0E0E0D;}
	.st6{fill:#101010;}
	.st7{fill:#111111;}
	.st8{fill:#131312;}
	.st9{fill:#121111;}
	.st10{fill:#121212;}
	.st11{fill:#0A0A09;}
	.st12{fill:#0B0A0A;}
	.st13{fill:#090908;}
	.st14{fill:#16857D;}
	.st15{fill:#DEDEDC;}
	.st16{fill:#1B1A19;}
	.st17{fill:#090808;}
	.st18{fill:#080808;}
	.st19{fill:#0C0C0B;}
	.st20{fill:#070707;}
	.st21{fill:#525351;}
	.st22{fill:#93928E;}
	.st23{fill:#1F1F1E;}
	.st24{fill:#222120;}
	.st25{fill:#161515;}
	.st26{fill:#151514;}
	.st27{fill:#1A1919;}
	.st28{fill:#161615;}
	.st29{fill:#1C1B1B;}
	.st30{fill:#1D1C1C;}
	.st31{fill:#151414;}
	.st32{fill:#2A2928;}
	.st33{fill:#201F1F;}
	.st34{fill:#171717;}
	.st35{fill:#EE5179;}
	.st36{fill:#2F1E8A;}
</style>
<g>
	<path class="st0" d="M0,49.82c0-16.67,0-33.33,0-50c16.67,0,33.33,0,50,0c0,16.67,0,33.33,0,50C33.33,49.82,16.67,49.82,0,49.82z
		 M45.7,9.25c-0.04-0.04-0.06-0.07-0.08-0.09c-0.17-0.11-0.34-0.22-0.52-0.32C41.17,6.67,37,5.16,32.6,4.32
		c-2.39-0.46-4.8-0.69-7.22-0.73c-2.85-0.04-5.67,0.23-8.46,0.78c-3.69,0.72-7.24,1.91-10.6,3.61c-0.67,0.34-1.3,0.74-1.95,1.11
		C4.17,9.2,4.13,9.33,4.25,9.54c1.52,2.62,3.03,5.24,4.55,7.87c0.1,0.17,0.2,0.21,0.37,0.13c0.43-0.2,0.88-0.38,1.31-0.6
		c3.22-1.63,6.61-2.73,10.2-3.2c2.97-0.38,5.94-0.34,8.9,0.08c3.07,0.43,6,1.34,8.8,2.69c0.7,0.33,1.39,0.67,2.09,0.99
		c0.34,0.15,0.35,0.14,0.53-0.17c1.33-2.27,2.65-4.55,3.97-6.82C45.23,10.1,45.46,9.67,45.7,9.25z M24.84,44.85
		c0.17-0.16,0.31-0.27,0.43-0.42c1.08-1.31,2.18-2.61,3.22-3.95c1.85-2.38,3.66-4.8,5.14-7.44c0.58-1.03,1.12-2.07,1.4-3.23
		c0.3-1.26-0.06-2.1-1.17-2.76c-0.16-0.1-0.33-0.18-0.49-0.26c-1.26-0.62-2.62-0.86-4-0.97c-2.1-0.17-4.19-0.06-6.29,0.12
		c-0.55,0.05-1.1,0.05-1.65,0.02c-0.44-0.03-0.54-0.27-0.27-0.62c0.25-0.32,0.52-0.65,0.85-0.86c0.65-0.4,1.33-0.75,2.03-1.05
		c2.29-0.95,4.69-1.53,7.08-2.16c0.63-0.16,1.26-0.33,1.85-0.59c0.83-0.37,0.87-1.08,0.13-1.62c-0.08-0.06-0.17-0.12-0.27-0.17
		c-0.54-0.3-1.12-0.51-1.72-0.58c-0.67-0.08-1.35-0.1-2.02-0.1c-1.85-0.01-3.7,0.02-5.53,0.31c-2.86,0.45-5.63,1.26-8.31,2.35
		c-1.11,0.45-2.22,0.92-3.34,1.37c-0.08,0.03-0.18,0.01-0.27,0.02c0-0.1-0.03-0.22,0.01-0.3c0.11-0.2,0.23-0.42,0.4-0.58
		c0.53-0.51,1.04-1.04,1.62-1.47c1.08-0.79,2.21-1.51,3.31-2.28c0.24-0.17,0.47-0.38,0.65-0.61c0.2-0.27,0.1-0.55-0.2-0.7
		c-0.09-0.05-0.2-0.08-0.3-0.1c-0.71-0.14-1.39,0.04-2.07,0.23c-1.37,0.38-2.69,0.92-3.96,1.55c-3.16,1.58-5.9,3.73-8.4,6.21
		c-0.02,0.02-0.03,0.05-0.05,0.09c0.3,0.27,0.6,0.52,0.91,0.79c0.59-0.54,1.16-1.07,1.73-1.58c1.12-1,2.26-1.96,3.57-2.71
		c0.27-0.16,0.57-0.28,0.87-0.37c0.12-0.04,0.31,0,0.39,0.07c0.06,0.06,0.01,0.26-0.04,0.37c-0.11,0.23-0.26,0.45-0.39,0.67
		c-0.49,0.78-1,1.56-1.47,2.36c-0.17,0.29-0.29,0.62-0.38,0.94c-0.1,0.37,0.14,0.62,0.52,0.6c0.07,0,0.15-0.01,0.22-0.03
		c0.62-0.24,1.25-0.45,1.85-0.74c1.87-0.91,3.76-1.77,5.73-2.46c1.96-0.7,3.94-1.34,6.01-1.61c0.57-0.08,1.15-0.12,1.71,0.08
		c0.34,0.12,0.37,0.28,0.07,0.48c-0.4,0.26-0.81,0.51-1.24,0.72c-2.14,1.06-4.23,2.22-6.2,3.57c-0.62,0.42-1.23,0.85-1.84,1.28
		c-0.26,0.19-0.27,0.28-0.14,0.51c0.45,0.76,0.89,1.51,1.33,2.27c0.14,0.24,0.28,0.49,0.42,0.72c0.04,0,0.06,0.01,0.07,0
		c0.27-0.12,0.53-0.24,0.8-0.35c1.71-0.73,3.5-1.16,5.31-1.5c1.1-0.21,2.2-0.36,3.32-0.29c0.26,0.02,0.53,0.07,0.79,0.15
		c0.33,0.11,0.48,0.4,0.4,0.74c-0.05,0.21-0.13,0.43-0.26,0.6c-0.34,0.45-0.68,0.9-1.06,1.3c-1.21,1.27-2.57,2.37-3.95,3.44
		c-0.59,0.46-1.19,0.91-1.76,1.39c-0.28,0.23-0.27,0.29-0.09,0.6c1.33,2.29,2.66,4.58,4,6.86C24.15,43.7,24.49,44.25,24.84,44.85z"
		/>
	<path class="st2" d="M45.7,9.25c-0.24,0.42-0.47,0.85-0.72,1.27c-1.32,2.28-2.65,4.55-3.97,6.82c-0.18,0.31-0.2,0.33-0.53,0.17
		c-0.7-0.32-1.39-0.66-2.09-0.99c-2.8-1.34-5.73-2.25-8.8-2.69c-2.96-0.42-5.93-0.46-8.9-0.08c-3.59,0.46-6.98,1.56-10.2,3.2
		c-0.43,0.22-0.87,0.4-1.31,0.6C9,17.63,8.89,17.58,8.8,17.41c-1.51-2.63-3.02-5.25-4.55-7.87C4.13,9.33,4.17,9.2,4.36,9.09
		c0.65-0.37,1.28-0.77,1.95-1.11c3.36-1.7,6.9-2.89,10.6-3.61c2.79-0.55,5.62-0.82,8.46-0.78c2.43,0.04,4.84,0.27,7.22,0.73
		C37,5.16,41.17,6.67,45.1,8.85c0.18,0.1,0.35,0.21,0.52,0.32C45.64,9.18,45.66,9.21,45.7,9.25z"/>
	<path class="st2" d="M24.84,44.85c-0.36-0.6-0.69-1.15-1.01-1.7c-1.33-2.29-2.67-4.58-4-6.86c-0.18-0.3-0.18-0.37,0.09-0.6
		c0.58-0.47,1.17-0.93,1.76-1.39c1.38-1.07,2.74-2.17,3.95-3.44c0.39-0.4,0.73-0.85,1.06-1.3c0.13-0.17,0.21-0.39,0.26-0.6
		c0.09-0.34-0.07-0.63-0.4-0.74c-0.25-0.08-0.52-0.13-0.79-0.15c-1.12-0.08-2.22,0.08-3.32,0.29c-1.82,0.34-3.6,0.78-5.31,1.5
		c-0.27,0.11-0.53,0.24-0.8,0.35c-0.01,0.01-0.03,0-0.07,0c-0.14-0.23-0.28-0.48-0.42-0.72c-0.44-0.76-0.89-1.51-1.33-2.27
		c-0.13-0.22-0.12-0.32,0.14-0.51c0.61-0.44,1.22-0.86,1.84-1.28c1.98-1.35,4.06-2.51,6.2-3.57c0.43-0.21,0.84-0.46,1.24-0.72
		c0.3-0.2,0.26-0.36-0.07-0.48c-0.56-0.2-1.14-0.16-1.71-0.08c-2.07,0.27-4.05,0.91-6.01,1.61c-1.96,0.7-3.85,1.56-5.73,2.46
		c-0.6,0.29-1.23,0.5-1.85,0.74c-0.07,0.03-0.14,0.03-0.22,0.03c-0.38,0.01-0.62-0.24-0.52-0.6c0.09-0.33,0.21-0.65,0.38-0.94
		c0.47-0.8,0.98-1.57,1.47-2.36c0.14-0.22,0.28-0.44,0.39-0.67c0.05-0.11,0.1-0.31,0.04-0.37c-0.08-0.08-0.27-0.11-0.39-0.07
		c-0.3,0.1-0.6,0.22-0.87,0.37c-1.31,0.75-2.45,1.71-3.57,2.71C4.72,24,4.15,24.53,3.56,25.07c-0.3-0.26-0.6-0.52-0.91-0.79
		c0.02-0.04,0.03-0.07,0.05-0.09c2.5-2.48,5.23-4.63,8.4-6.21c1.27-0.64,2.59-1.18,3.96-1.55c0.67-0.18,1.36-0.36,2.07-0.23
		c0.1,0.02,0.21,0.05,0.3,0.1c0.3,0.15,0.41,0.43,0.2,0.7c-0.17,0.24-0.4,0.45-0.65,0.61c-1.1,0.77-2.23,1.49-3.31,2.28
		c-0.59,0.43-1.1,0.96-1.62,1.47c-0.17,0.16-0.28,0.38-0.4,0.58c-0.04,0.08-0.01,0.2-0.01,0.3c0.09,0,0.19,0.01,0.27-0.02
		c1.11-0.45,2.22-0.92,3.34-1.37c2.68-1.09,5.45-1.89,8.31-2.35c1.83-0.29,3.68-0.32,5.53-0.31c0.67,0,1.35,0.03,2.02,0.1
		c0.61,0.07,1.18,0.28,1.72,0.58c0.09,0.05,0.18,0.11,0.27,0.17c0.73,0.54,0.7,1.25-0.13,1.62c-0.59,0.26-1.23,0.42-1.85,0.59
		c-2.39,0.63-4.79,1.21-7.08,2.16c-0.7,0.29-1.38,0.65-2.03,1.05c-0.33,0.21-0.6,0.54-0.85,0.86c-0.27,0.35-0.17,0.6,0.27,0.62
		c0.55,0.03,1.11,0.03,1.65-0.02c2.09-0.18,4.19-0.29,6.29-0.12c1.38,0.11,2.74,0.35,4,0.97c0.17,0.08,0.33,0.17,0.49,0.26
		c1.11,0.66,1.47,1.51,1.17,2.76c-0.28,1.16-0.83,2.2-1.4,3.23c-1.48,2.64-3.28,5.06-5.14,7.44c-1.04,1.34-2.14,2.64-3.22,3.95
		C25.16,44.58,25.01,44.69,24.84,44.85z"/>
</g>
</svg>
