<?xml version="1.0" encoding="utf-8"?>
<!-- Generator: Adobe Illustrator 28.1.0, SVG Export Plug-In . SVG Version: 6.00 Build 0)  -->
<svg version="1.1" id="Layer_1" xmlns="http://www.w3.org/2000/svg" xmlns:xlink="http://www.w3.org/1999/xlink" x="0px" y="0px"
	 viewBox="0 0 50 50" style="enable-background:new 0 0 50 50;" xml:space="preserve">
<style type="text/css">
	.st0{fill:#FCCC12;}
	.st1{fill:#0A0909;}
	.st2{fill:#FFFFFF;}
	.st3{fill:#FEFEFD;}
	.st4{fill:#100F0F;}
	.st5{fill:#0E0E0D;}
	.st6{fill:#101010;}
	.st7{fill:#111111;}
	.st8{fill:#131312;}
	.st9{fill:#121111;}
	.st10{fill:#121212;}
	.st11{fill:#0A0A09;}
	.st12{fill:#0B0A0A;}
	.st13{fill:#090908;}
	.st14{fill:#16857D;}
	.st15{fill:#DEDEDC;}
	.st16{fill:#1B1A19;}
	.st17{fill:#090808;}
	.st18{fill:#080808;}
	.st19{fill:#0C0C0B;}
	.st20{fill:#070707;}
	.st21{fill:#525351;}
	.st22{fill:#93928E;}
	.st23{fill:#1F1F1E;}
	.st24{fill:#222120;}
	.st25{fill:#161515;}
	.st26{fill:#151514;}
	.st27{fill:#1A1919;}
	.st28{fill:#161615;}
	.st29{fill:#1C1B1B;}
	.st30{fill:#1D1C1C;}
	.st31{fill:#151414;}
	.st32{fill:#2A2928;}
	.st33{fill:#201F1F;}
	.st34{fill:#171717;}
	.st35{fill:#EE5179;}
	.st36{fill:#2F1E8A;}
</style>
<rect x="0.09" y="-0.06" class="st14" width="50" height="50"/>
<g>
	<path class="st14" d="M0,17.11c0-4.1,0-8.2,0-12.3c16.67,0,33.33,0,50,0c0,14.24,0,28.48,0,42.72c-12.53,0-25.07,0-37.6,0
		c0.4-0.1,0.82-0.17,1.21-0.31c4.12-1.41,8.23-2.84,12.35-4.25c0.39-0.13,0.78-0.31,1.18-0.37c1.58-0.22,3.16-0.4,4.74-0.59
		c0.45-0.05,0.9-0.12,1.29-0.39c0.05-0.03,0.13-0.04,0.19-0.04c0.68,0.04,1.37,0.07,2.05,0.11c0.41,0.03,0.82,0.02,1.22,0.1
		c1.07,0.22,2.12,0.47,3.18,0.72c0.42,0.1,0.84,0.16,1.27,0.09c1.21-0.2,2.07-1.01,2.34-2.21c0.95-4.16,1.89-8.32,2.84-12.48
		c1.2-5.27,2.4-10.54,3.6-15.81c0.34-1.49-0.57-2.99-2.06-3.35c-1.37-0.33-2.74-0.63-4.11-0.94c-4.21-0.96-8.42-1.92-12.63-2.88
		c-1.32-0.3-2.59,0.27-3.21,1.48c-0.05,0.1-0.11,0.12-0.21,0.11c-0.51-0.03-1.02-0.06-1.53-0.09c-1.55-0.09-3.1-0.16-4.66-0.26
		C20.16,6.09,19,6.86,18.6,8.11c-0.06,0.19-0.1,0.39-0.15,0.6c-0.14,0.02-0.28,0.03-0.43,0.05c-2.3,0.29-4.61,0.58-6.91,0.86
		c-1.18,0.15-2.12,0.97-2.4,2.1c-0.05,0.18-0.03,0.41-0.14,0.52c-0.12,0.13-0.36,0.14-0.54,0.21c-2.04,0.71-4.09,1.4-6.13,2.12
		c-0.96,0.34-1.55,1.03-1.8,2.02C0.05,16.77,0.03,16.94,0,17.11z"/>
	<path d="M0,17.11c0.03-0.17,0.05-0.34,0.09-0.51c0.24-0.99,0.83-1.68,1.8-2.02c2.04-0.72,4.09-1.42,6.13-2.12
		c0.19-0.06,0.42-0.08,0.54-0.21c0.11-0.11,0.1-0.35,0.14-0.52c0.29-1.14,1.23-1.96,2.4-2.1c2.3-0.29,4.61-0.57,6.91-0.86
		c0.14-0.02,0.29-0.03,0.43-0.05c0.05-0.21,0.08-0.41,0.15-0.6c0.4-1.26,1.56-2.02,2.88-1.94c1.55,0.1,3.1,0.17,4.66,0.26
		c0.51,0.03,1.02,0.06,1.53,0.09c0.1,0.01,0.16-0.01,0.21-0.11c0.61-1.21,1.88-1.78,3.21-1.48c4.21,0.96,8.42,1.92,12.63,2.88
		c1.37,0.31,2.75,0.62,4.11,0.94c1.48,0.35,2.4,1.86,2.06,3.35c-1.2,5.27-2.4,10.54-3.6,15.81c-0.95,4.16-1.89,8.32-2.84,12.48
		c-0.27,1.2-1.13,2.01-2.34,2.21c-0.43,0.07-0.85,0.01-1.27-0.09c-1.06-0.25-2.12-0.5-3.18-0.72c-0.4-0.08-0.81-0.07-1.22-0.1
		c-0.68-0.04-1.37-0.08-2.05-0.11c-0.06,0-0.14,0-0.19,0.04c-0.39,0.27-0.83,0.34-1.29,0.39c-1.58,0.19-3.17,0.37-4.74,0.59
		c-0.4,0.06-0.79,0.24-1.18,0.37c-4.12,1.42-8.23,2.84-12.35,4.25c-0.39,0.13-0.81,0.21-1.21,0.31c-0.07,0-0.13,0-0.2,0
		c-0.03-0.01-0.06-0.02-0.09-0.03c-1.2-0.13-2.04-0.74-2.44-1.87c-1.16-3.3-2.29-6.61-3.43-9.91c-1.27-3.69-2.57-7.38-3.81-11.08
		C1.6,22.2,0.61,19.82,0,17.31C0,17.24,0,17.18,0,17.11z M22.78,35.88c0,0.65,0.36,1.11,0.9,1.24c0.39,0.09,0.79,0.18,1.18,0.27
		c2.89,0.66,5.77,1.32,8.66,1.97c2.29,0.52,4.58,1.05,6.87,1.56c0.67,0.15,1.27-0.24,1.42-0.9c0.52-2.27,1.04-4.55,1.55-6.82
		c0.77-3.37,1.53-6.74,2.3-10.12c0.86-3.77,1.72-7.53,2.58-11.3c0.16-0.71-0.21-1.29-0.92-1.45c-0.78-0.18-1.55-0.36-2.33-0.53
		c-4.77-1.09-9.54-2.17-14.32-3.26c-0.67-0.15-1.28,0.23-1.43,0.91c-0.56,2.44-1.11,4.89-1.67,7.33c-0.79,3.48-1.59,6.95-2.38,10.43
		c-0.74,3.23-1.47,6.46-2.21,9.69C22.91,35.26,22.84,35.62,22.78,35.88z M18.37,10.4c-0.08,0.01-0.14,0.01-0.19,0.02
		c-1.24,0.15-2.47,0.31-3.71,0.46c-1.07,0.13-2.14,0.26-3.21,0.4c-0.61,0.08-1.05,0.67-0.97,1.27c0.21,1.66,0.42,3.33,0.62,4.99
		c0.23,1.86,0.46,3.72,0.69,5.58c0.27,2.22,0.55,4.43,0.83,6.65c0.23,1.86,0.46,3.72,0.69,5.58c0.25,1.99,0.49,3.97,0.74,5.96
		c0.07,0.6,0.44,1.02,0.99,1.09c0.24,0.03,0.49-0.02,0.74-0.05c1.41-0.17,2.82-0.34,4.23-0.52c1.43-0.18,2.85-0.35,4.28-0.53
		c0.38-0.05,0.75-0.1,1.13-0.14c-0.33-0.05-0.66-0.07-0.99-0.09c-1.53-0.08-3.07-0.16-4.6-0.25c-0.31-0.02-0.63-0.07-0.92-0.17
		c-1.05-0.36-1.95-1.43-1.85-2.97c0.12-1.79,0.21-3.58,0.31-5.38c0.11-2.03,0.22-4.07,0.34-6.1c0.11-2.03,0.22-4.07,0.34-6.1
		c0.08-1.42,0.16-2.84,0.24-4.27c0.07-1.29,0.14-2.59,0.22-3.88C18.31,11.44,18.34,10.93,18.37,10.4z M27.38,8.17
		c-0.21-0.01-0.4-0.02-0.59-0.03c-1.84-0.1-3.69-0.21-5.53-0.3c-0.58-0.03-1.11,0.46-1.15,1.05c-0.07,1.18-0.14,2.35-0.2,3.53
		c-0.1,1.75-0.19,3.49-0.29,5.24c-0.11,1.99-0.22,3.98-0.33,5.97c-0.13,2.33-0.26,4.66-0.39,6.99c-0.14,2.43-0.27,4.86-0.4,7.29
		c-0.04,0.66,0.44,1.2,1.1,1.25c0.42,0.03,0.84,0.05,1.26,0.07c1.75,0.1,3.5,0.2,5.24,0.29c0.2,0.01,0.4,0.02,0.63,0.03
		c-0.03-0.02-0.03-0.02-0.04-0.02c-1.09-0.25-2.17-0.51-3.26-0.75c-1.66-0.37-2.6-1.81-2.23-3.47c0.51-2.28,1.04-4.56,1.56-6.84
		c0.77-3.38,1.54-6.75,2.31-10.13c0.6-2.65,1.21-5.29,1.81-7.94C27.05,9.66,27.21,8.93,27.38,8.17z M18.87,43.65
		c0-0.01,0-0.02-0.01-0.03c-0.03,0-0.07,0-0.1,0.01c-1.11,0.14-2.23,0.26-3.34,0.42c-1.31,0.18-2.57-0.53-3.02-1.76
		c-0.15-0.4-0.19-0.84-0.25-1.26c-0.16-1.22-0.31-2.45-0.46-3.67c-0.14-1.13-0.28-2.26-0.42-3.39c-0.15-1.22-0.3-2.45-0.46-3.67
		c-0.15-1.22-0.3-2.44-0.45-3.66c-0.16-1.32-0.33-2.64-0.49-3.96c-0.15-1.22-0.3-2.44-0.45-3.66c-0.15-1.22-0.3-2.45-0.46-3.67
		c-0.06-0.46-0.11-0.91-0.17-1.37C8.74,13.97,8.7,13.98,8.67,14c-2.03,0.7-4.05,1.41-6.09,2.09c-0.68,0.23-1.05,0.9-0.8,1.62
		c0.93,2.63,1.83,5.26,2.73,7.9c2.23,6.46,4.46,12.93,6.68,19.39c0.24,0.7,0.88,1.01,1.58,0.76c1.48-0.51,2.97-1.02,4.45-1.53
		C17.78,44.03,18.33,43.84,18.87,43.65z"/>
	<path class="st14" d="M0,17.31c0.61,2.51,1.6,4.89,2.42,7.33c1.24,3.7,2.54,7.39,3.81,11.08c1.14,3.3,2.27,6.61,3.43,9.91
		c0.4,1.13,1.25,1.75,2.44,1.87c0.03,0,0.06,0.02,0.09,0.03c-4.06,0-8.13,0-12.2,0C0,37.46,0,27.38,0,17.31z"/>
	<path class="st2" d="M22.78,35.88c0.06-0.26,0.14-0.62,0.22-0.98c0.74-3.23,1.47-6.46,2.21-9.69c0.79-3.48,1.59-6.95,2.38-10.43
		c0.56-2.44,1.11-4.89,1.67-7.33c0.15-0.68,0.76-1.06,1.43-0.91C35.45,7.63,40.23,8.72,45,9.81c0.78,0.18,1.55,0.36,2.33,0.53
		c0.71,0.16,1.08,0.75,0.92,1.45c-0.86,3.77-1.72,7.53-2.58,11.3c-0.77,3.37-1.54,6.74-2.3,10.12c-0.52,2.27-1.04,4.55-1.55,6.82
		c-0.15,0.67-0.75,1.06-1.42,0.9c-2.29-0.52-4.58-1.04-6.87-1.56c-2.89-0.66-5.77-1.32-8.66-1.97c-0.39-0.09-0.79-0.18-1.18-0.27
		C23.14,36.99,22.78,36.54,22.78,35.88z M32.29,28.85c1.39,0.3,2.76,0.6,4.14,0.9c0.03-0.13,0.06-0.24,0.07-0.35
		c0.01-0.04-0.01-0.09-0.03-0.12c-0.53-0.55-0.77-1.23-0.87-1.96c-0.04-0.27-0.03-0.55-0.05-0.82c0.03-0.01,0.05-0.02,0.08-0.03
		c0.03,0.05,0.05,0.1,0.09,0.14c0.73,0.68,1.59,1,2.59,0.82c1.15-0.21,1.95-1.18,1.95-2.34c0-0.58-0.17-1.11-0.49-1.59
		c-0.28-0.42-0.61-0.82-0.93-1.21c-0.87-1.08-1.59-2.24-1.97-3.59c-0.04-0.13-0.08-0.26-0.11-0.39c-0.34,0.35-0.66,0.71-1,1.03
		c-0.92,0.86-2,1.46-3.13,1.98c-0.52,0.24-0.99,0.54-1.39,0.96c-1.01,1.05-0.95,2.64,0.16,3.56c0.76,0.63,1.64,0.76,2.58,0.52
		c0.14-0.04,0.28-0.08,0.46-0.14c-0.41,0.96-0.98,1.74-1.94,2.17c-0.05,0.02-0.11,0.06-0.13,0.11
		C32.33,28.61,32.32,28.72,32.29,28.85z M31.48,37.36c0-0.28-0.22-0.5-0.5-0.5c-0.28,0-0.5,0.22-0.5,0.5c0,0.27,0.22,0.49,0.49,0.5
		C31.25,37.86,31.47,37.64,31.48,37.36z M24.75,33.24c-0.28-0.01-0.51,0.21-0.51,0.49c-0.01,0.28,0.22,0.5,0.5,0.51
		c0.27,0,0.49-0.21,0.5-0.48C25.25,33.48,25.02,33.25,24.75,33.24z M31,35.19c0-0.28-0.22-0.5-0.5-0.5c-0.28,0-0.5,0.22-0.5,0.5
		c0,0.27,0.22,0.49,0.5,0.49C30.78,35.69,31,35.48,31,35.19z M27.62,30.88c0.27,0,0.51-0.24,0.5-0.51c0-0.27-0.23-0.49-0.5-0.5
		c-0.28,0-0.51,0.22-0.51,0.5C27.12,30.65,27.35,30.88,27.62,30.88z M24.72,35.9c0,0.28,0.23,0.51,0.5,0.5
		c0.28,0,0.5-0.23,0.49-0.51c0-0.27-0.22-0.49-0.49-0.49C24.94,35.4,24.72,35.62,24.72,35.9z M27.13,35.89c-0.29,0-0.5,0.22-0.5,0.5
		c0,0.28,0.22,0.5,0.51,0.49c0.27,0,0.48-0.22,0.49-0.5C27.63,36.1,27.42,35.89,27.13,35.89z M27.16,34.23c0-0.28-0.22-0.5-0.5-0.5
		c-0.28,0-0.51,0.23-0.5,0.5c0,0.27,0.23,0.49,0.49,0.49C26.93,34.73,27.16,34.51,27.16,34.23z M26.18,32.56
		c0.28,0,0.5-0.22,0.5-0.5c0-0.28-0.23-0.5-0.51-0.5c-0.27,0-0.49,0.22-0.5,0.49C25.67,32.33,25.89,32.55,26.18,32.56z M28.56,35.21
		c0.28,0.01,0.51-0.2,0.52-0.48c0.01-0.28-0.21-0.51-0.49-0.51c-0.27-0.01-0.51,0.22-0.51,0.5C28.07,34.97,28.29,35.2,28.56,35.21z
		 M26.65,28.21c0,0.28,0.22,0.5,0.5,0.5c0.27,0,0.49-0.21,0.5-0.48c0.01-0.28-0.21-0.51-0.49-0.51
		C26.88,27.71,26.65,27.93,26.65,28.21z M25.7,29.4c-0.28,0-0.5,0.22-0.49,0.51c0,0.27,0.22,0.49,0.49,0.49
		c0.28,0,0.51-0.23,0.51-0.5C26.2,29.62,25.98,29.4,25.7,29.4z M29.06,36.37c-0.28,0-0.5,0.21-0.5,0.5c0,0.28,0.22,0.5,0.5,0.5
		c0.27,0,0.49-0.22,0.49-0.49C29.56,36.6,29.34,36.38,29.06,36.37z M33.4,37.84c0-0.28-0.21-0.5-0.5-0.5c-0.27,0-0.49,0.21-0.5,0.49
		c-0.01,0.28,0.21,0.51,0.49,0.51C33.17,38.34,33.39,38.13,33.4,37.84z M26.68,25.56c-0.29,0-0.5,0.2-0.5,0.49
		c0,0.28,0.2,0.49,0.48,0.5c0.29,0.01,0.51-0.2,0.51-0.48C27.17,25.77,26.97,25.56,26.68,25.56z"/>
	<path class="st2" d="M18.37,10.4c-0.03,0.53-0.06,1.04-0.09,1.55c-0.07,1.29-0.14,2.59-0.22,3.88c-0.08,1.42-0.16,2.84-0.24,4.27
		c-0.11,2.03-0.22,4.07-0.34,6.1c-0.11,2.03-0.22,4.07-0.34,6.1c-0.1,1.79-0.18,3.59-0.31,5.38c-0.1,1.54,0.8,2.61,1.85,2.97
		c0.29,0.1,0.61,0.16,0.92,0.17c1.53,0.1,3.07,0.17,4.6,0.25c0.33,0.02,0.66,0.04,0.99,0.09c-0.38,0.05-0.75,0.1-1.13,0.14
		c-1.43,0.18-2.85,0.35-4.28,0.53c-1.41,0.17-2.82,0.35-4.23,0.52c-0.24,0.03-0.5,0.08-0.74,0.05c-0.55-0.06-0.92-0.49-0.99-1.09
		c-0.24-1.99-0.49-3.97-0.74-5.96c-0.23-1.86-0.46-3.72-0.69-5.58c-0.27-2.22-0.55-4.43-0.83-6.65c-0.23-1.86-0.46-3.72-0.69-5.58
		c-0.21-1.66-0.41-3.33-0.62-4.99c-0.08-0.6,0.36-1.19,0.97-1.27c1.07-0.14,2.14-0.27,3.21-0.4c1.24-0.15,2.47-0.31,3.71-0.46
		C18.23,10.41,18.29,10.41,18.37,10.4z M13.92,15.62c0.05,0.48-0.06,0.89-0.39,1.23c-0.05,0.05-0.07,0.14-0.13,0.25
		c0.61-0.05,1.16-0.09,1.71-0.13c0.01-0.02,0.02-0.03,0.03-0.05c-0.05-0.06-0.09-0.14-0.15-0.19c-0.38-0.29-0.55-0.68-0.6-1.15
		c0.12,0.06,0.24,0.13,0.34,0.21c0.19,0.15,0.4,0.24,0.64,0.23c0.43-0.02,0.76-0.32,0.85-0.74c0.08-0.4-0.12-0.81-0.49-1
		c-0.37-0.18-0.8-0.09-1.09,0.23c-0.08,0.09-0.17,0.16-0.26,0.25c-0.01-0.07-0.01-0.12,0.01-0.16c0.1-0.18,0.2-0.36,0.32-0.53
		c0.23-0.32,0.25-0.75,0.04-1.07c-0.2-0.3-0.58-0.46-0.92-0.39c-0.38,0.08-0.65,0.38-0.71,0.78c-0.04,0.32,0.07,0.59,0.31,0.81
		c0.18,0.16,0.32,0.34,0.4,0.58c-0.11-0.05-0.22-0.12-0.31-0.19c-0.3-0.24-0.69-0.28-1.01-0.09c-0.35,0.2-0.5,0.51-0.46,0.9
		c0.04,0.37,0.24,0.63,0.59,0.75c0.36,0.13,0.68,0.05,0.96-0.23C13.71,15.82,13.82,15.72,13.92,15.62z M15.4,39.45
		c0-0.28-0.22-0.5-0.5-0.5c-0.27,0-0.49,0.22-0.49,0.49c0,0.28,0.21,0.5,0.49,0.51C15.18,39.95,15.4,39.73,15.4,39.45z M16.11,37.35
		c0-0.28-0.22-0.5-0.5-0.5c-0.27,0-0.49,0.21-0.5,0.49c-0.01,0.28,0.22,0.51,0.49,0.51C15.87,37.85,16.1,37.62,16.11,37.35z
		 M15.66,41.27c0,0.28,0.23,0.5,0.51,0.5c0.27-0.01,0.49-0.23,0.49-0.5c0-0.28-0.23-0.51-0.5-0.51C15.88,40.77,15.66,41,15.66,41.27
		z M14.35,36.01c0.29,0,0.5-0.21,0.49-0.5c0-0.27-0.22-0.49-0.49-0.49c-0.29,0-0.5,0.21-0.5,0.49
		C13.84,35.8,14.06,36.02,14.35,36.01z"/>
	<path class="st2" d="M27.38,8.17c-0.17,0.76-0.34,1.5-0.5,2.23c-0.6,2.65-1.21,5.29-1.81,7.94c-0.77,3.38-1.54,6.75-2.31,10.13
		c-0.52,2.28-1.05,4.56-1.56,6.84c-0.37,1.66,0.57,3.1,2.23,3.47c1.09,0.24,2.17,0.5,3.26,0.75c0,0,0.01,0.01,0.04,0.02
		c-0.23-0.01-0.43-0.02-0.63-0.03c-1.75-0.1-3.5-0.2-5.24-0.29c-0.42-0.02-0.84-0.04-1.26-0.07c-0.66-0.04-1.13-0.58-1.1-1.25
		c0.14-2.43,0.27-4.86,0.4-7.29c0.13-2.33,0.26-4.66,0.39-6.99c0.11-1.99,0.22-3.98,0.33-5.97c0.1-1.75,0.19-3.49,0.29-5.24
		c0.07-1.18,0.13-2.35,0.2-3.53c0.04-0.59,0.57-1.08,1.15-1.05c1.84,0.1,3.69,0.2,5.53,0.3C26.98,8.14,27.17,8.16,27.38,8.17z
		 M22.93,13.97c0.02-0.02,0.04-0.02,0.04-0.03c0.48-0.67,0.97-1.33,1.45-2c0.03-0.04,0.03-0.14,0-0.19
		c-0.24-0.46-0.49-0.92-0.73-1.38c-0.14-0.27-0.29-0.54-0.45-0.83c-0.51,0.7-1.01,1.39-1.5,2.07c-0.02,0.03-0.02,0.11,0,0.15
		C22.14,12.49,22.53,13.22,22.93,13.97z M19.87,31.39c-0.28,0-0.5,0.22-0.5,0.5c0,0.27,0.22,0.49,0.49,0.49
		c0.28,0,0.51-0.22,0.51-0.49C20.38,31.62,20.15,31.39,19.87,31.39z M20.92,37.9c0-0.28-0.21-0.51-0.49-0.51
		c-0.28,0-0.5,0.22-0.5,0.5c0,0.27,0.22,0.49,0.49,0.5C20.69,38.4,20.92,38.18,20.92,37.9z M20.73,33.44
		c-0.28,0-0.51,0.21-0.51,0.49c0,0.27,0.23,0.5,0.5,0.5c0.27,0,0.49-0.22,0.5-0.49C21.23,33.67,21.01,33.45,20.73,33.44z
		 M20.08,35.84c0-0.28-0.23-0.5-0.51-0.5c-0.27,0.01-0.49,0.23-0.49,0.5c0,0.28,0.22,0.51,0.5,0.51
		C19.87,36.34,20.08,36.12,20.08,35.84z M21.5,29.98c0-0.28-0.21-0.49-0.49-0.49c-0.29,0-0.5,0.21-0.5,0.49c0,0.29,0.21,0.5,0.5,0.5
		C21.3,30.48,21.5,30.27,21.5,29.98z"/>
	<path class="st2" d="M18.87,43.65c-0.55,0.19-1.1,0.38-1.65,0.57c-1.48,0.51-2.97,1.02-4.45,1.53c-0.7,0.24-1.34-0.06-1.58-0.76
		c-2.23-6.46-4.46-12.93-6.68-19.39c-0.91-2.63-1.81-5.27-2.73-7.9c-0.25-0.72,0.11-1.4,0.8-1.62C4.61,15.41,6.64,14.7,8.67,14
		c0.04-0.01,0.07-0.02,0.13-0.04c0.06,0.46,0.11,0.92,0.17,1.37c0.15,1.22,0.3,2.45,0.46,3.67c0.15,1.22,0.3,2.44,0.45,3.66
		c0.16,1.32,0.33,2.64,0.49,3.96c0.15,1.22,0.3,2.44,0.45,3.66c0.15,1.22,0.3,2.45,0.46,3.67c0.14,1.13,0.28,2.26,0.42,3.39
		c0.15,1.22,0.3,2.45,0.46,3.67c0.06,0.43,0.1,0.87,0.25,1.26c0.46,1.24,1.72,1.94,3.02,1.76c1.11-0.15,2.23-0.28,3.34-0.42
		c0.03,0,0.07,0,0.1-0.01C18.87,43.63,18.87,43.64,18.87,43.65z M6.65,20.84c0.02-0.02,0.04-0.02,0.04-0.03
		c0.36-0.83,0.7-1.66,0.91-2.54c0.09-0.38,0.07-0.75-0.13-1.09c-0.36-0.62-1.12-0.67-1.58-0.12c-0.19,0.23-0.27,0.5-0.31,0.76
		c-0.23-0.11-0.44-0.26-0.67-0.33c-0.75-0.22-1.34,0.33-1.22,1.09c0.06,0.34,0.23,0.61,0.5,0.83C4.96,19.98,5.8,20.41,6.65,20.84z
		 M13.12,44.8c0.28,0,0.5-0.21,0.5-0.49c0-0.28-0.22-0.5-0.5-0.5c-0.28,0-0.49,0.21-0.49,0.49C12.63,44.58,12.84,44.8,13.12,44.8z
		 M12.03,42.77c0-0.28-0.22-0.5-0.5-0.5c-0.28,0-0.5,0.22-0.5,0.5c0,0.27,0.22,0.49,0.49,0.49C11.81,43.27,12.03,43.05,12.03,42.77z
		"/>
	<path d="M32.29,28.85c0.03-0.13,0.04-0.24,0.08-0.34c0.02-0.05,0.08-0.09,0.13-0.11c0.96-0.43,1.53-1.21,1.94-2.17
		c-0.17,0.05-0.31,0.1-0.46,0.14c-0.94,0.24-1.82,0.11-2.58-0.52c-1.11-0.92-1.18-2.51-0.16-3.56c0.4-0.41,0.87-0.72,1.39-0.96
		c1.13-0.52,2.21-1.12,3.13-1.98c0.35-0.32,0.66-0.68,1-1.03c0.04,0.12,0.07,0.26,0.11,0.39c0.39,1.34,1.1,2.51,1.97,3.59
		c0.32,0.4,0.65,0.79,0.93,1.21c0.31,0.47,0.49,1.01,0.49,1.59c0,1.16-0.8,2.13-1.95,2.34c-1.01,0.19-1.86-0.13-2.59-0.82
		c-0.04-0.04-0.06-0.09-0.09-0.14c-0.03,0.01-0.05,0.02-0.08,0.03c0.02,0.27,0.01,0.55,0.05,0.82c0.1,0.74,0.34,1.42,0.87,1.96
		c0.03,0.03,0.04,0.08,0.03,0.12c-0.02,0.11-0.04,0.22-0.07,0.35C35.05,29.45,33.69,29.15,32.29,28.85z"/>
	<path d="M31.48,37.36c0,0.28-0.23,0.5-0.51,0.5c-0.27,0-0.49-0.22-0.49-0.5c0-0.28,0.22-0.5,0.5-0.5
		C31.26,36.86,31.48,37.08,31.48,37.36z"/>
	<path d="M24.75,33.24c0.28,0.01,0.5,0.24,0.49,0.51c-0.01,0.27-0.24,0.49-0.5,0.48c-0.28,0-0.5-0.23-0.5-0.51
		C24.24,33.45,24.46,33.24,24.75,33.24z"/>
	<path d="M31,35.19c0,0.28-0.22,0.5-0.51,0.49c-0.28,0-0.49-0.22-0.5-0.49c0-0.28,0.22-0.5,0.5-0.5C30.78,34.69,31,34.91,31,35.19z"
		/>
	<path d="M27.62,30.88c-0.28,0-0.5-0.23-0.5-0.51c0-0.28,0.23-0.5,0.51-0.5c0.27,0,0.49,0.23,0.5,0.5
		C28.13,30.65,27.9,30.88,27.62,30.88z"/>
	<path d="M24.72,35.9c0-0.28,0.22-0.5,0.5-0.5c0.27,0,0.49,0.22,0.49,0.49c0,0.28-0.22,0.51-0.49,0.51
		C24.94,36.41,24.72,36.18,24.72,35.9z"/>
	<path d="M27.13,35.89c0.29,0,0.5,0.21,0.5,0.5c0,0.28-0.21,0.49-0.49,0.5c-0.29,0-0.51-0.21-0.51-0.49
		C26.63,36.11,26.84,35.89,27.13,35.89z"/>
	<path d="M27.16,34.23c0,0.28-0.23,0.5-0.51,0.5c-0.27,0-0.49-0.23-0.49-0.49c0-0.27,0.23-0.5,0.5-0.5
		C26.93,33.72,27.16,33.95,27.16,34.23z"/>
	<path d="M26.18,32.56c-0.28,0-0.5-0.22-0.5-0.5c0-0.27,0.22-0.49,0.5-0.49c0.28,0,0.51,0.22,0.51,0.5
		C26.68,32.34,26.46,32.56,26.18,32.56z"/>
	<path d="M28.56,35.21c-0.27-0.01-0.49-0.23-0.49-0.5c0-0.27,0.24-0.5,0.51-0.5c0.28,0.01,0.5,0.23,0.49,0.51
		C29.07,35,28.84,35.21,28.56,35.21z"/>
	<path d="M26.65,28.21c0-0.28,0.23-0.5,0.51-0.49c0.28,0,0.5,0.23,0.49,0.51c-0.01,0.27-0.23,0.49-0.5,0.48
		C26.86,28.71,26.64,28.49,26.65,28.21z"/>
	<path d="M25.7,29.4c0.28,0,0.51,0.22,0.51,0.5c0,0.27-0.23,0.5-0.51,0.5c-0.27,0-0.49-0.22-0.49-0.49
		C25.2,29.62,25.42,29.4,25.7,29.4z"/>
	<path d="M29.06,36.37c0.28,0,0.5,0.22,0.5,0.5c0,0.27-0.22,0.49-0.49,0.49c-0.28,0-0.5-0.22-0.5-0.5
		C28.56,36.59,28.77,36.37,29.06,36.37z"/>
	<path d="M33.4,37.84c0,0.28-0.22,0.5-0.51,0.49c-0.28,0-0.5-0.23-0.49-0.51c0.01-0.27,0.23-0.49,0.5-0.49
		C33.18,37.34,33.4,37.56,33.4,37.84z"/>
	<path d="M26.68,25.56c0.29,0,0.49,0.21,0.49,0.5c0,0.29-0.22,0.49-0.51,0.48c-0.28-0.01-0.48-0.22-0.48-0.5
		C26.18,25.76,26.39,25.56,26.68,25.56z"/>
	<path d="M13.92,15.62c-0.11,0.1-0.21,0.2-0.32,0.31c-0.27,0.27-0.6,0.35-0.96,0.23c-0.35-0.12-0.55-0.38-0.59-0.75
		c-0.04-0.39,0.11-0.7,0.46-0.9c0.32-0.19,0.71-0.14,1.01,0.09c0.09,0.07,0.2,0.14,0.31,0.19c-0.08-0.24-0.22-0.42-0.4-0.58
		c-0.24-0.22-0.36-0.49-0.31-0.81c0.05-0.4,0.33-0.7,0.71-0.78c0.34-0.07,0.73,0.09,0.92,0.39c0.21,0.33,0.19,0.75-0.04,1.07
		c-0.12,0.17-0.22,0.35-0.32,0.53c-0.02,0.04-0.03,0.09-0.01,0.16c0.09-0.08,0.18-0.16,0.26-0.25c0.29-0.32,0.72-0.41,1.09-0.23
		c0.37,0.18,0.57,0.59,0.49,1c-0.08,0.42-0.42,0.72-0.85,0.74c-0.24,0.01-0.45-0.07-0.64-0.23c-0.1-0.08-0.21-0.15-0.34-0.21
		c0.05,0.47,0.22,0.86,0.6,1.15c0.06,0.05,0.1,0.12,0.15,0.19c-0.01,0.02-0.02,0.03-0.03,0.05c-0.55,0.04-1.1,0.08-1.71,0.13
		c0.06-0.11,0.08-0.19,0.13-0.25C13.86,16.51,13.98,16.1,13.92,15.62z"/>
	<path d="M15.4,39.45c0,0.28-0.22,0.5-0.5,0.5c-0.28,0-0.5-0.22-0.49-0.51c0-0.27,0.22-0.49,0.49-0.49
		C15.18,38.94,15.4,39.16,15.4,39.45z"/>
	<path d="M16.11,37.35c0,0.28-0.23,0.5-0.51,0.5c-0.28,0-0.5-0.24-0.49-0.51c0.01-0.27,0.23-0.48,0.5-0.49
		C15.88,36.85,16.11,37.07,16.11,37.35z"/>
	<path d="M15.66,41.27c0-0.28,0.22-0.51,0.5-0.51c0.28,0,0.5,0.23,0.5,0.51c0,0.27-0.22,0.49-0.49,0.5
		C15.89,41.78,15.67,41.55,15.66,41.27z"/>
	<path d="M14.35,36.01c-0.29,0-0.5-0.21-0.5-0.49c0-0.28,0.22-0.5,0.5-0.49c0.28,0,0.49,0.21,0.49,0.49
		C14.85,35.8,14.64,36.01,14.35,36.01z"/>
	<path d="M22.93,13.97c-0.4-0.74-0.79-1.48-1.18-2.21c-0.02-0.04-0.03-0.12,0-0.15c0.49-0.69,0.99-1.37,1.5-2.07
		c0.16,0.29,0.3,0.56,0.45,0.83c0.25,0.46,0.49,0.92,0.73,1.38c0.03,0.05,0.03,0.15,0,0.19c-0.48,0.67-0.96,1.34-1.45,2
		C22.96,13.94,22.95,13.95,22.93,13.97z"/>
	<path d="M19.87,31.39c0.28,0,0.51,0.22,0.51,0.5c0,0.27-0.23,0.5-0.51,0.49c-0.27,0-0.49-0.22-0.49-0.49
		C19.37,31.62,19.59,31.39,19.87,31.39z"/>
	<path d="M20.92,37.9c0,0.28-0.23,0.5-0.51,0.5c-0.27-0.01-0.49-0.23-0.49-0.5c0-0.28,0.22-0.51,0.5-0.5
		C20.71,37.39,20.93,37.61,20.92,37.9z"/>
	<path d="M20.73,33.44c0.28,0,0.5,0.23,0.5,0.51c-0.01,0.27-0.23,0.49-0.5,0.49c-0.28,0-0.51-0.23-0.5-0.5
		C20.22,33.66,20.44,33.44,20.73,33.44z"/>
	<path d="M20.08,35.84c0,0.28-0.22,0.51-0.5,0.51c-0.28,0-0.5-0.22-0.5-0.51c0-0.27,0.22-0.49,0.49-0.5
		C19.85,35.34,20.08,35.56,20.08,35.84z"/>
	<path d="M21.5,29.98c0,0.29-0.21,0.5-0.49,0.51c-0.28,0-0.5-0.21-0.5-0.5c0-0.29,0.21-0.5,0.5-0.49
		C21.3,29.49,21.5,29.7,21.5,29.98z"/>
	<path d="M6.65,20.84c-0.85-0.43-1.69-0.86-2.45-1.44c-0.27-0.21-0.45-0.48-0.5-0.83c-0.13-0.77,0.47-1.31,1.22-1.09
		c0.23,0.07,0.45,0.22,0.67,0.33c0.03-0.25,0.12-0.52,0.31-0.76c0.46-0.55,1.21-0.5,1.58,0.12c0.2,0.34,0.22,0.71,0.13,1.09
		c-0.21,0.88-0.55,1.71-0.91,2.54C6.69,20.81,6.68,20.82,6.65,20.84z"/>
	<path d="M13.12,44.8c-0.28,0-0.5-0.22-0.49-0.51c0-0.28,0.22-0.49,0.49-0.49c0.28,0,0.5,0.22,0.5,0.5
		C13.63,44.59,13.41,44.8,13.12,44.8z"/>
	<path d="M12.03,42.77c0,0.28-0.23,0.5-0.5,0.5c-0.27,0-0.49-0.22-0.49-0.49c0-0.28,0.21-0.5,0.5-0.5
		C11.82,42.27,12.03,42.49,12.03,42.77z"/>
</g>
</svg>
