<?xml version="1.0" encoding="utf-8"?>
<!-- Generator: Adobe Illustrator 28.1.0, SVG Export Plug-In . SVG Version: 6.00 Build 0)  -->
<svg version="1.1" id="Layer_1" xmlns="http://www.w3.org/2000/svg" xmlns:xlink="http://www.w3.org/1999/xlink" x="0px" y="0px"
	 viewBox="0 0 50 50" style="enable-background:new 0 0 50 50;" xml:space="preserve">
<style type="text/css">
	.st0{fill:#FCCC12;}
	.st1{fill:#0A0909;}
	.st2{fill:#FFFFFF;}
	.st3{fill:#FEFEFD;}
	.st4{fill:#100F0F;}
	.st5{fill:#0E0E0D;}
	.st6{fill:#101010;}
	.st7{fill:#111111;}
	.st8{fill:#131312;}
	.st9{fill:#121111;}
	.st10{fill:#121212;}
	.st11{fill:#0A0A09;}
	.st12{fill:#0B0A0A;}
	.st13{fill:#090908;}
	.st14{fill:#16857D;}
	.st15{fill:#DEDEDC;}
	.st16{fill:#1B1A19;}
	.st17{fill:#090808;}
	.st18{fill:#080808;}
	.st19{fill:#0C0C0B;}
	.st20{fill:#070707;}
	.st21{fill:#525351;}
	.st22{fill:#93928E;}
	.st23{fill:#1F1F1E;}
	.st24{fill:#222120;}
	.st25{fill:#161515;}
	.st26{fill:#151514;}
	.st27{fill:#1A1919;}
	.st28{fill:#161615;}
	.st29{fill:#1C1B1B;}
	.st30{fill:#1D1C1C;}
	.st31{fill:#151414;}
	.st32{fill:#2A2928;}
	.st33{fill:#201F1F;}
	.st34{fill:#171717;}
	.st35{fill:#EE5179;}
	.st36{fill:#2F1E8A;}
</style>
<g>
	<g id="cMbgjC.tif">
		<g>
			<path class="st36" d="M49.94,50c-16.67,0-33.33,0-50,0c0-16.67,0-33.33,0-50c16.67,0,33.33,0,50,0
				C49.94,16.67,49.94,33.33,49.94,50z M36.71,12.67c4.03,4.3,5.6,9.22,4.57,14.96c-0.7,0.04-1.19-0.05-1.45-0.82
				c-0.41-1.22-1.25-2-2.64-2.12c-1.34-0.11-2.68-0.3-4.01-0.55c-0.97-0.18-1.77,0.11-2.35,0.81c-0.6,0.72-1.16,1.52-1.55,2.38
				c-1.1,2.42-1.48,5.01-1.4,7.65c0.04,1.52,0.27,3.02,1,4.39c0.42,0.78,0.97,1.4,1.91,1.53c1.42,0.2,2.84,0.36,4.25,0.63
				c1.31,0.25,2.28-0.21,3.04-1.22c0.24-0.33,0.5-0.48,0.88-0.38c1.31,0.33,2.11-0.38,2.72-1.38c1.15-1.88,1.5-3.99,1.51-6.15
				c0.01-1.46-0.17-2.9-1.09-4.14c-0.09-0.12-0.06-0.35-0.03-0.51c0.95-4.98-0.11-9.52-3.08-13.61c-0.51-0.7-1.1-1.34-1.68-2.03
				c0.23-0.28,0.6-0.49,0.12-0.94c-6.54-6.23-17.18-6.51-24.09-0.63c-0.46,0.39-0.69,0.71-0.1,1.14c-0.13,0.13-0.21,0.23-0.3,0.31
				c-4.21,4.26-5.92,9.35-5.04,15.28c0.07,0.46,0,0.76-0.32,1.09c-0.26,0.27-0.43,0.66-0.56,1.03c-0.61,1.67-0.58,3.38-0.32,5.1
				c0.24,1.57,0.63,3.09,1.6,4.4c0.58,0.78,1.29,1.31,2.34,1.04c0.48-0.12,0.79,0.05,1.09,0.45c0.67,0.87,1.52,1.36,2.7,1.15
				c1.43-0.25,2.87-0.45,4.31-0.62c0.81-0.09,1.43-0.46,1.83-1.13c0.33-0.57,0.64-1.17,0.81-1.8c0.8-2.9,0.55-5.8-0.22-8.67
				c-0.43-1.6-1.04-3.12-2.21-4.34c-0.65-0.68-1.41-1.02-2.4-0.84c-1.3,0.24-2.62,0.43-3.94,0.54c-1.44,0.11-2.28,0.91-2.73,2.18
				c-0.2,0.54-0.46,0.84-1.05,0.73c-1.52-4.3,1.15-12.48,4.98-15.23c0.57,0.44,0.57,0.44,1.16-0.05c2.46-2.05,5.3-3.27,8.48-3.56
				c4.61-0.42,8.7,0.88,12.16,4C36.02,13.11,36.32,13.27,36.71,12.67z"/>
			<path d="M36.71,12.67c-0.39,0.59-0.7,0.44-1.09,0.09c-3.46-3.11-7.55-4.42-12.16-4c-3.18,0.29-6.01,1.5-8.48,3.56
				c-0.59,0.49-0.59,0.49-1.16,0.05c-3.83,2.75-6.5,10.93-4.98,15.23c0.6,0.11,0.86-0.18,1.05-0.73c0.46-1.27,1.29-2.06,2.73-2.18
				c1.32-0.1,2.64-0.3,3.94-0.54c1-0.18,1.75,0.16,2.4,0.84c1.17,1.22,1.78,2.74,2.21,4.34c0.77,2.87,1.02,5.76,0.22,8.67
				c-0.17,0.63-0.48,1.24-0.81,1.8c-0.4,0.67-1.02,1.04-1.83,1.13c-1.44,0.16-2.88,0.37-4.31,0.62c-1.18,0.21-2.03-0.28-2.7-1.15
				c-0.31-0.4-0.62-0.57-1.09-0.45c-1.05,0.27-1.76-0.26-2.34-1.04c-0.96-1.3-1.36-2.83-1.6-4.4c-0.26-1.72-0.29-3.44,0.32-5.1
				c0.13-0.36,0.3-0.75,0.56-1.03c0.32-0.34,0.39-0.63,0.32-1.09C7.04,21.35,8.75,16.26,12.96,12c0.09-0.09,0.17-0.18,0.3-0.31
				c-0.59-0.43-0.36-0.75,0.1-1.14c6.9-5.88,17.55-5.6,24.09,0.63c0.48,0.45,0.11,0.66-0.12,0.94c0.57,0.69,1.17,1.33,1.68,2.03
				c2.97,4.09,4.03,8.63,3.08,13.61c-0.03,0.17-0.06,0.4,0.03,0.51c0.92,1.24,1.1,2.68,1.09,4.14c-0.01,2.16-0.36,4.26-1.51,6.15
				c-0.61,1-1.41,1.71-2.72,1.38c-0.39-0.1-0.64,0.06-0.88,0.38c-0.76,1.01-1.72,1.47-3.04,1.22c-1.4-0.27-2.83-0.42-4.25-0.63
				c-0.94-0.13-1.5-0.75-1.91-1.53c-0.73-1.37-0.96-2.87-1-4.39c-0.08-2.64,0.3-5.23,1.4-7.65c0.39-0.85,0.95-1.65,1.55-2.38
				c0.58-0.7,1.38-0.98,2.35-0.81c1.32,0.24,2.66,0.43,4.01,0.55c1.39,0.12,2.22,0.89,2.64,2.12c0.26,0.77,0.75,0.86,1.45,0.82
				C42.31,21.89,40.75,16.97,36.71,12.67z M28.69,34.31c0,0.15-0.01,0.29,0,0.44c0.07,1.56,0.19,3.12,1.05,4.49
				c0.65,1.04,1.51,1.17,2.35,0.29c0.54-0.56,1-1.23,1.33-1.94c1.23-2.66,1.59-5.48,1.38-8.38c-0.09-1.26-0.32-2.52-1.08-3.59
				c-0.62-0.88-1.46-0.99-2.21-0.23c-0.5,0.51-0.94,1.12-1.26,1.75C29.1,29.39,28.75,31.82,28.69,34.31z M21.07,34.12
				c-0.06-2.25-0.4-4.65-1.51-6.86c-0.37-0.73-0.89-1.4-1.46-1.98c-0.61-0.61-1.4-0.54-1.89,0.15c-0.39,0.54-0.71,1.18-0.89,1.82
				c-0.63,2.25-0.5,4.53-0.09,6.79c0.32,1.77,0.83,3.47,1.92,4.94c1.2,1.61,2.44,1.46,3.22-0.39
				C20.95,37.23,21.05,35.78,21.07,34.12z M32.65,40.35c0.67,0.09,1.44,0.11,2.17,0.32c1.52,0.43,2.41-0.32,3.11-1.51
				c0.09-0.16,0.19-0.32,0.28-0.49c1.05-2.05,1.48-4.26,1.6-6.53c0.1-1.77,0.02-3.54-0.76-5.17c-0.24-0.51-0.69-1.12-1.17-1.27
				c-1.07-0.32-2.22-0.39-3.27-0.54C36.48,30.58,35.91,35.59,32.65,40.35z M15.15,25.17c-0.81,0.12-1.68,0.31-2.56,0.35
				c-1.01,0.05-1.53,0.63-1.9,1.46c-0.16,0.36-0.29,0.73-0.39,1.11c-0.6,2.41-0.43,4.82,0.08,7.22c0.33,1.55,0.81,3.06,1.8,4.33
				c0.35,0.45,0.89,1.04,1.37,1.06c1.21,0.05,2.43-0.2,3.58-0.32C13.85,35.6,13.28,30.61,15.15,25.17z"/>
			<path class="st2" d="M28.69,34.31c0.06-2.49,0.41-4.92,1.56-7.17c0.33-0.63,0.77-1.24,1.26-1.75c0.75-0.77,1.59-0.65,2.21,0.23
				c0.76,1.07,0.99,2.33,1.08,3.59c0.21,2.9-0.15,5.73-1.38,8.38c-0.33,0.7-0.79,1.38-1.33,1.94c-0.85,0.88-1.7,0.74-2.35-0.29
				c-0.86-1.37-0.98-2.93-1.05-4.49C28.68,34.6,28.69,34.46,28.69,34.31z M31.77,33.81c-0.28,0.36-0.57,0.57-0.56,0.77
				c0.01,0.2,0.31,0.39,0.48,0.59c0.19-0.18,0.5-0.33,0.53-0.54C32.26,34.43,32,34.19,31.77,33.81z M31.77,30.55
				c-0.28,0.36-0.57,0.57-0.56,0.77c0.01,0.21,0.31,0.4,0.48,0.6c0.19-0.18,0.5-0.34,0.54-0.54C32.26,31.19,32,30.95,31.77,30.55z
				 M30.16,32.18c-0.28,0.36-0.57,0.57-0.56,0.76c0.01,0.2,0.3,0.4,0.47,0.6c0.19-0.18,0.5-0.33,0.54-0.53
				C30.64,32.81,30.39,32.57,30.16,32.18z M34.12,33.02c-0.34-0.28-0.55-0.58-0.73-0.57c-0.2,0.01-0.52,0.31-0.54,0.5
				c-0.01,0.19,0.28,0.52,0.48,0.55C33.51,33.54,33.75,33.26,34.12,33.02z"/>
			<path class="st2" d="M21.07,34.12c-0.02,1.66-0.12,3.11-0.7,4.47c-0.78,1.84-2.03,2-3.22,0.39c-1.09-1.47-1.6-3.17-1.92-4.94
				c-0.41-2.27-0.54-4.54,0.09-6.79c0.18-0.64,0.5-1.28,0.89-1.82c0.49-0.68,1.29-0.76,1.89-0.15c0.57,0.58,1.1,1.26,1.46,1.98
				C20.67,29.48,21.01,31.88,21.07,34.12z M18.21,35.4c0.24-0.39,0.51-0.63,0.48-0.82c-0.03-0.2-0.35-0.36-0.54-0.54
				c-0.17,0.2-0.47,0.38-0.48,0.59C17.65,34.83,17.94,35.04,18.21,35.4z M18.95,31.34c-0.37-0.25-0.6-0.53-0.79-0.5
				c-0.2,0.03-0.5,0.35-0.5,0.54c0.01,0.19,0.32,0.49,0.53,0.51C18.38,31.9,18.6,31.61,18.95,31.34z M17.33,33.06
				c-0.34-0.3-0.53-0.6-0.72-0.6c-0.2,0-0.54,0.28-0.55,0.46c-0.01,0.19,0.25,0.53,0.45,0.58C16.68,33.54,16.94,33.28,17.33,33.06z
				 M19.81,32.18c-0.27,0.37-0.54,0.58-0.53,0.78c0.01,0.2,0.31,0.39,0.48,0.58c0.19-0.18,0.5-0.34,0.53-0.54
				C20.32,32.8,20.06,32.57,19.81,32.18z"/>
			<path class="st2" d="M32.65,40.35c3.27-4.76,3.83-9.77,1.95-15.19c1.05,0.16,2.2,0.22,3.27,0.54c0.48,0.15,0.93,0.76,1.17,1.27
				c0.78,1.63,0.86,3.4,0.76,5.17c-0.12,2.27-0.55,4.48-1.6,6.53c-0.08,0.17-0.18,0.33-0.28,0.49c-0.7,1.19-1.59,1.93-3.11,1.51
				C34.09,40.46,33.32,40.44,32.65,40.35z"/>
			<path class="st2" d="M15.15,25.17c-1.86,5.43-1.29,10.43,1.98,15.21c-1.14,0.12-2.37,0.36-3.58,0.32
				c-0.47-0.02-1.01-0.61-1.37-1.06c-0.99-1.27-1.47-2.78-1.8-4.33c-0.51-2.4-0.68-4.81-0.08-7.22c0.09-0.38,0.23-0.75,0.39-1.11
				c0.36-0.83,0.89-1.41,1.9-1.46C13.46,25.48,14.34,25.29,15.15,25.17z"/>
		</g>
	</g>
	<g>
		<circle cx="18.24" cy="34.71" r="0.64"/>
		<circle cx="18.24" cy="31.36" r="0.64"/>
		<circle cx="16.64" cy="32.94" r="0.64"/>
		<circle cx="19.98" cy="32.94" r="0.64"/>
	</g>
	<g>
		<circle cx="31.71" cy="34.61" r="0.64"/>
		<circle cx="31.71" cy="31.27" r="0.64"/>
		<circle cx="30.1" cy="32.84" r="0.64"/>
		<circle cx="33.44" cy="32.84" r="0.64"/>
	</g>
</g>
</svg>
