<?xml version="1.0" encoding="utf-8"?>
<!-- Generator: Adobe Illustrator 28.1.0, SVG Export Plug-In . SVG Version: 6.00 Build 0)  -->
<svg version="1.1" id="Layer_1" xmlns="http://www.w3.org/2000/svg" xmlns:xlink="http://www.w3.org/1999/xlink" x="0px" y="0px"
	 viewBox="0 0 50 50" style="enable-background:new 0 0 50 50;" xml:space="preserve">
<style type="text/css">
	.st0{fill:#FCCC12;}
	.st1{fill:#0A0909;}
	.st2{fill:#FFFFFF;}
	.st3{fill:#FEFEFD;}
	.st4{fill:#100F0F;}
	.st5{fill:#0E0E0D;}
	.st6{fill:#101010;}
	.st7{fill:#111111;}
	.st8{fill:#131312;}
	.st9{fill:#121111;}
	.st10{fill:#121212;}
	.st11{fill:#0A0A09;}
	.st12{fill:#0B0A0A;}
	.st13{fill:#090908;}
	.st14{fill:#16857D;}
	.st15{fill:#DEDEDC;}
	.st16{fill:#1B1A19;}
	.st17{fill:#090808;}
	.st18{fill:#080808;}
	.st19{fill:#0C0C0B;}
	.st20{fill:#070707;}
	.st21{fill:#525351;}
	.st22{fill:#93928E;}
	.st23{fill:#1F1F1E;}
	.st24{fill:#222120;}
	.st25{fill:#161515;}
	.st26{fill:#151514;}
	.st27{fill:#1A1919;}
	.st28{fill:#161615;}
	.st29{fill:#1C1B1B;}
	.st30{fill:#1D1C1C;}
	.st31{fill:#151414;}
	.st32{fill:#2A2928;}
	.st33{fill:#201F1F;}
	.st34{fill:#171717;}
	.st35{fill:#EE5179;}
	.st36{fill:#2F1E8A;}
</style>
<g>
	<path class="st0" d="M0,0c16.67,0,33.33,0,50,0c0,16.67,0,33.33,0,50c-16.67,0-33.33,0-50,0C0,33.33,0,16.67,0,0z M41.98,24.52
		c1.11-1.03,2.16-2.01,3.21-2.99c1.14-1.07,1.1-1.54-0.25-2.34c-1.26-0.75-2.53-1.48-3.81-2.22c0.59-1.49,1.14-2.86,1.66-4.24
		c0.45-1.18,0.15-1.68-1.08-1.81c-1.25-0.13-2.51-0.24-3.76-0.28c-0.71-0.02-0.98-0.29-1.01-0.99c-0.05-1.26-0.14-2.51-0.26-3.76
		c-0.1-1.08-0.64-1.42-1.66-1.06c-1.25,0.45-2.51,0.89-3.73,1.41c-0.57,0.24-0.88,0.11-1.16-0.4c-0.6-1.06-1.22-2.11-1.86-3.16
		c-0.76-1.26-1.25-1.3-2.3-0.23c-0.85,0.87-1.72,1.74-2.54,2.64c-0.4,0.45-0.73,0.49-1.22,0.14c-1-0.71-2.02-1.37-3.04-2.04
		c-1.25-0.82-1.72-0.66-2.19,0.74c-0.47,1.39-0.93,2.79-1.4,4.21c-1.67-0.23-3.23-0.45-4.81-0.64c-0.94-0.11-1.41,0.32-1.3,1.29
		c0.16,1.32,0.31,2.65,0.54,3.95c0.1,0.6-0.02,0.86-0.63,1.02c-1.25,0.33-2.48,0.73-3.71,1.13c-1.17,0.38-1.38,0.95-0.7,1.98
		c0.83,1.26,1.68,2.51,2.56,3.81c-1.15,1.07-2.27,2.09-3.36,3.13c-0.97,0.94-0.9,1.43,0.27,2.12c1.29,0.77,2.6,1.52,3.92,2.3
		c-0.56,1.43-1.09,2.77-1.6,4.11c-0.52,1.36-0.2,1.85,1.22,1.94c1.14,0.08,2.29,0.19,3.43,0.25c0.74,0.04,1.14,0.33,1.17,1.14
		c0.03,1.07,0.16,2.14,0.23,3.21c0.1,1.64,0.55,1.93,2.12,1.34c1.69-0.63,3.38-1.27,5.23-1.97c0.16,1.59,0.25,3.06,0.48,4.5
		c0.08,0.52,0.37,1.18,0.78,1.45c1.7,1.12,3.48,2.1,5.22,3.16c0.68,0.41,1.24,0.28,1.79-0.25c1.41-1.36,2.89-2.66,4.24-4.08
		c0.36-0.38,0.55-1.09,0.52-1.64c-0.07-1.46-0.3-2.9-0.48-4.49c2,0.27,3.82,0.51,5.65,0.75c1.46,0.2,1.84-0.16,1.64-1.61
		c-0.19-1.42-0.41-2.84-0.64-4.36c1.52-0.48,2.99-0.93,4.46-1.4c1.2-0.39,1.38-0.91,0.69-1.96C43.7,27.07,42.85,25.82,41.98,24.52z"
		/>
	<path d="M41.98,24.52c0.88,1.3,1.72,2.55,2.56,3.81c0.69,1.05,0.51,1.57-0.69,1.96c-1.47,0.48-2.95,0.93-4.46,1.4
		c0.22,1.51,0.44,2.94,0.64,4.36c0.2,1.44-0.18,1.8-1.64,1.61c-1.82-0.25-3.65-0.49-5.65-0.75c0.18,1.59,0.41,3.04,0.48,4.49
		c0.03,0.55-0.16,1.26-0.52,1.64c-1.35,1.42-2.83,2.71-4.24,4.08c-0.55,0.53-1.11,0.66-1.79,0.25c-1.74-1.05-3.52-2.04-5.22-3.16
		c-0.41-0.27-0.7-0.93-0.78-1.45c-0.23-1.45-0.32-2.91-0.48-4.5c-1.85,0.7-3.54,1.34-5.23,1.97c-1.58,0.59-2.02,0.3-2.12-1.34
		c-0.07-1.07-0.2-2.14-0.23-3.21c-0.02-0.81-0.42-1.1-1.17-1.14c-1.14-0.06-2.29-0.17-3.43-0.25c-1.42-0.09-1.74-0.59-1.22-1.94
		c0.52-1.34,1.04-2.68,1.6-4.11c-1.33-0.78-2.63-1.53-3.92-2.3c-1.17-0.7-1.24-1.18-0.27-2.12c1.09-1.05,2.21-2.06,3.36-3.13
		c-0.88-1.31-1.74-2.55-2.56-3.81c-0.68-1.03-0.47-1.6,0.7-1.98c1.23-0.39,2.46-0.8,3.71-1.13c0.61-0.16,0.73-0.42,0.63-1.02
		C9.8,11.43,9.65,10.1,9.49,8.78c-0.12-0.97,0.35-1.4,1.3-1.29c1.57,0.19,3.14,0.42,4.81,0.64c0.47-1.43,0.93-2.82,1.4-4.21
		c0.47-1.4,0.94-1.56,2.19-0.74c1.02,0.67,2.04,1.34,3.04,2.04c0.49,0.35,0.82,0.3,1.22-0.14c0.82-0.91,1.68-1.77,2.54-2.64
		c1.05-1.07,1.54-1.03,2.3,0.23c0.63,1.04,1.26,2.09,1.86,3.16c0.29,0.51,0.59,0.64,1.16,0.4c1.23-0.51,2.48-0.96,3.73-1.41
		c1.02-0.36,1.56-0.02,1.66,1.06c0.12,1.25,0.21,2.51,0.26,3.76c0.03,0.7,0.29,0.96,1.01,0.99c1.26,0.04,2.51,0.15,3.76,0.28
		c1.24,0.13,1.53,0.63,1.08,1.81c-0.52,1.38-1.08,2.75-1.66,4.24c1.28,0.75,2.55,1.48,3.81,2.22c1.35,0.8,1.39,1.28,0.25,2.34
		C44.14,22.51,43.09,23.48,41.98,24.52z M30.85,35.94c-0.2-2.31,1-4.05,1.94-5.88c0.93-1.8,2.11-3.53,2.7-5.44
		c1.22-3.95,0.19-7.57-2.66-10.52c-3.01-3.1-6.76-4.15-10.97-3.05c-8.29,2.16-11.1,12.21-5.38,18.21c2.16,2.27,4.62,4.4,5.45,7.68
		c0.75-0.07,1.44-0.13,2.23-0.2c-0.84-3.27-1.65-6.39-2.45-9.49c-1.88-0.04-2.63-0.42-2.84-1.44c-0.17-0.84,0-1.63,0.87-1.93
		c1.68-0.58,2.05,0.94,2.76,1.98c0.58-0.33,1.09-0.62,1.64-0.93c-1.58-1.69-1.92-3.16-1.04-4.23c0.64-0.78,1.98-1.04,2.82-0.47
		c0.38,0.26,0.88,0.71,0.88,1.06c-0.01,1.15-0.23,2.3-0.39,3.56c0.33,0.08,0.92,0.23,1.45,0.36c0.26-0.68,0.4-1.27,0.69-1.77
		c0.63-1.08,1.98-1.05,2.62,0.01c0.56,0.93,0.18,2.1-0.89,2.58c-0.42,0.19-0.89,0.3-1.48,0.49c0,3.22,0,6.42,0,9.7
		C29.4,36.15,30.05,36.06,30.85,35.94z M40.74,12.72c-1.4-0.1-2.61-0.21-3.83-0.28c-1.46-0.08-1.71-0.32-1.8-1.79
		c-0.08-1.21-0.17-2.43-0.27-3.75c-1.39,0.52-2.71,0.98-3.99,1.52c-0.86,0.37-1.37,0.12-1.8-0.66c-0.65-1.18-1.37-2.33-1.95-3.29
		c-1.04,0.93-2.1,1.79-3.07,2.76c-0.64,0.64-1.17,0.74-1.92,0.2c-1.12-0.8-2.3-1.53-3.52-2.33c-0.45,1.41-0.88,2.67-1.26,3.94
		c-0.25,0.85-0.67,1.2-1.62,1.03c-1.35-0.25-2.73-0.36-4.21-0.55c0.21,1.54,0.35,2.9,0.58,4.24c0.13,0.77-0.11,1.17-0.86,1.39
		c-1.37,0.4-2.73,0.86-4.2,1.33c0.82,1.22,1.55,2.36,2.35,3.46c0.55,0.75,0.45,1.3-0.24,1.9c-1.03,0.88-2,1.83-3.08,2.84
		c1.26,0.74,2.38,1.44,3.55,2.05c0.92,0.48,1.06,1.08,0.65,2c-0.52,1.17-0.95,2.39-1.47,3.72c1.53,0.14,2.95,0.3,4.38,0.4
		c0.72,0.05,1.08,0.32,1.13,1.06c0.1,1.43,0.26,2.85,0.4,4.4c1.76-0.67,3.42-1.3,5.19-1.97c-0.43-0.64-0.71-1.16-1.09-1.61
		c-1.31-1.56-2.61-3.12-3.98-4.62c-2.72-2.98-3.67-6.53-2.99-10.38c0.93-5.31,4.16-8.89,9.35-10.31c5.46-1.5,10.28,0,13.79,4.44
		c3.33,4.21,3.79,8.94,1.23,13.8c-0.98,1.86-2,3.7-2.97,5.57c-0.27,0.53-0.42,1.12-0.65,1.76c1.91,0.26,3.61,0.5,5.43,0.75
		c-0.19-1.43-0.27-2.75-0.56-4.03c-0.23-1.01,0.13-1.44,1.03-1.7c1.32-0.38,2.63-0.82,3.97-1.24c-0.12-0.21-0.16-0.31-0.22-0.4
		c-0.53-0.8-1.06-1.6-1.6-2.4c-1.16-1.7-1.15-1.7,0.31-3.05c0.81-0.75,1.61-1.51,2.51-2.35c-1.21-0.71-2.32-1.44-3.5-2.03
		c-1-0.5-1.1-1.11-0.67-2.06C39.8,15.27,40.22,14.06,40.74,12.72z M25.22,36.61c0.83-0.1,1.51-0.19,2.37-0.29c0-3.35,0-6.65,0-9.94
		c-1.71-1.08-3.34-0.72-4.85,0.66C23.55,30.19,24.37,33.36,25.22,36.61z M22.53,42.7c2.99-0.33,5.85-0.65,8.79-0.98
		c-0.04-0.38-0.07-0.68-0.1-1.07c-2.95,0.33-5.8,0.65-8.68,0.97C22.53,41.97,22.53,42.25,22.53,42.7z M30.8,37.79
		c-2.95,0.33-5.75,0.65-8.58,0.97c0.03,0.38,0.04,0.66,0.07,1.09c2.95-0.33,5.8-0.65,8.71-0.98C30.91,38.41,30.86,38.13,30.8,37.79z
		 M25.01,24.08c1.02-1.26,1.22-2.44,0.43-2.84c-0.39-0.2-1.19-0.09-1.53,0.2C23.24,22.02,23.73,23.13,25.01,24.08z M28.97,44.02
		c-0.03-0.08-0.06-0.16-0.09-0.24c-1.14,0.15-2.29,0.29-3.73,0.48c0.92,0.55,1.54,0.91,2.19,1.29
		C27.91,45.01,28.44,44.52,28.97,44.02z M21,26.39c0.13-0.17,0.26-0.33,0.39-0.5c-0.4-0.35-0.8-0.7-1.2-1.05
		c-0.12,0.2-0.39,0.54-0.35,0.58C20.2,25.77,20.61,26.07,21,26.39z M28.94,25.07c0.18,0.12,0.37,0.25,0.55,0.37
		c0.27-0.39,0.57-0.78,0.79-1.2c0.03-0.05-0.31-0.3-0.48-0.46C29.51,24.22,29.22,24.65,28.94,25.07z"/>
	<path class="st2" d="M30.85,35.94c-0.79,0.11-1.44,0.21-2.09,0.3c0-3.29,0-6.49,0-9.7c0.6-0.19,1.06-0.3,1.48-0.49
		c1.07-0.48,1.45-1.64,0.89-2.58c-0.64-1.06-1.99-1.09-2.62-0.01c-0.29,0.5-0.43,1.09-0.69,1.77c-0.53-0.13-1.12-0.28-1.45-0.36
		c0.15-1.26,0.38-2.41,0.39-3.56c0-0.36-0.5-0.81-0.88-1.06c-0.84-0.57-2.18-0.31-2.82,0.47c-0.88,1.06-0.54,2.53,1.04,4.23
		c-0.55,0.31-1.06,0.6-1.64,0.93c-0.71-1.05-1.08-2.56-2.76-1.98c-0.87,0.3-1.04,1.09-0.87,1.93c0.21,1.01,0.96,1.4,2.84,1.44
		c0.8,3.1,1.61,6.22,2.45,9.49c-0.79,0.07-1.47,0.14-2.23,0.2c-0.83-3.28-3.29-5.41-5.45-7.68c-5.72-6-2.91-16.05,5.38-18.21
		c4.21-1.1,7.95-0.05,10.97,3.05c2.86,2.94,3.88,6.56,2.66,10.52c-0.59,1.91-1.77,3.63-2.7,5.44
		C31.84,31.89,30.65,33.63,30.85,35.94z"/>
	<path class="st2" d="M40.74,12.72c-0.52,1.33-0.93,2.55-1.46,3.72c-0.43,0.95-0.33,1.56,0.67,2.06c1.18,0.59,2.28,1.32,3.5,2.03
		c-0.89,0.84-1.69,1.6-2.51,2.35c-1.47,1.35-1.47,1.35-0.31,3.05c0.54,0.8,1.07,1.6,1.6,2.4c0.06,0.09,0.11,0.19,0.22,0.4
		c-1.34,0.42-2.65,0.86-3.97,1.24c-0.9,0.26-1.25,0.69-1.03,1.7c0.29,1.28,0.37,2.61,0.56,4.03c-1.82-0.25-3.52-0.48-5.43-0.75
		c0.23-0.64,0.37-1.24,0.65-1.76c0.97-1.87,1.99-3.7,2.97-5.57c2.56-4.86,2.1-9.58-1.23-13.8c-3.51-4.45-8.33-5.94-13.79-4.44
		c-5.19,1.43-8.42,5-9.35,10.31c-0.68,3.85,0.27,7.4,2.99,10.38c1.37,1.5,2.68,3.07,3.98,4.62c0.37,0.45,0.66,0.97,1.09,1.61
		c-1.77,0.67-3.42,1.3-5.19,1.97c-0.14-1.55-0.3-2.97-0.4-4.4c-0.05-0.74-0.41-1.01-1.13-1.06c-1.43-0.09-2.85-0.25-4.38-0.4
		c0.52-1.33,0.94-2.55,1.47-3.72c0.4-0.91,0.27-1.51-0.65-2c-1.17-0.61-2.29-1.31-3.55-2.05c1.09-1.01,2.06-1.95,3.08-2.84
		c0.69-0.59,0.79-1.14,0.24-1.9c-0.8-1.09-1.53-2.24-2.35-3.46c1.47-0.47,2.83-0.93,4.2-1.33c0.75-0.22,0.99-0.62,0.86-1.39
		c-0.22-1.34-0.37-2.7-0.58-4.24c1.47,0.19,2.85,0.3,4.21,0.55c0.94,0.18,1.37-0.18,1.62-1.03c0.38-1.27,0.81-2.53,1.26-3.94
		c1.21,0.8,2.39,1.52,3.52,2.33c0.75,0.54,1.28,0.43,1.92-0.2c0.97-0.96,2.02-1.83,3.07-2.76c0.57,0.96,1.3,2.11,1.95,3.29
		c0.43,0.78,0.94,1.03,1.8,0.66c1.28-0.54,2.6-1,3.99-1.52c0.1,1.32,0.19,2.54,0.27,3.75c0.09,1.47,0.34,1.71,1.8,1.79
		C38.13,12.52,39.34,12.62,40.74,12.72z"/>
	<path class="st2" d="M25.22,36.61c-0.84-3.26-1.66-6.42-2.48-9.57c1.52-1.38,3.14-1.74,4.85-0.66c0,3.28,0,6.59,0,9.94
		C26.73,36.43,26.04,36.51,25.22,36.61z"/>
	<path class="st2" d="M22.53,42.7c0-0.46,0-0.73,0-1.08c2.89-0.32,5.74-0.64,8.68-0.97c0.04,0.39,0.07,0.69,0.1,1.07
		C28.38,42.05,25.52,42.37,22.53,42.7z"/>
	<path class="st2" d="M30.8,37.79c0.06,0.35,0.11,0.63,0.2,1.08c-2.91,0.33-5.76,0.65-8.71,0.98c-0.03-0.43-0.05-0.71-0.07-1.09
		C25.05,38.44,27.85,38.12,30.8,37.79z"/>
	<path class="st2" d="M25.01,24.08c-1.27-0.95-1.77-2.06-1.1-2.64c0.34-0.29,1.14-0.4,1.53-0.2C26.23,21.64,26.03,22.82,25.01,24.08
		z"/>
	<path class="st2" d="M28.97,44.02c-0.53,0.5-1.05,0.99-1.63,1.53c-0.65-0.38-1.27-0.75-2.19-1.29c1.44-0.19,2.59-0.33,3.73-0.48
		C28.91,43.86,28.94,43.94,28.97,44.02z"/>
	<path class="st2" d="M21,26.39c-0.39-0.31-0.8-0.61-1.16-0.96c-0.04-0.04,0.23-0.38,0.35-0.58c0.4,0.35,0.8,0.7,1.2,1.05
		C21.26,26.05,21.13,26.22,21,26.39z"/>
	<path class="st2" d="M28.94,25.07c0.29-0.43,0.57-0.86,0.86-1.28c0.17,0.16,0.51,0.41,0.48,0.46c-0.23,0.42-0.52,0.8-0.79,1.2
		C29.3,25.32,29.12,25.2,28.94,25.07z"/>
</g>
</svg>
