<?xml version="1.0" encoding="utf-8"?>
<!-- Generator: Adobe Illustrator 28.1.0, SVG Export Plug-In . SVG Version: 6.00 Build 0)  -->
<svg version="1.1" id="Layer_1" xmlns="http://www.w3.org/2000/svg" xmlns:xlink="http://www.w3.org/1999/xlink" x="0px" y="0px"
	 viewBox="0 0 50 50" style="enable-background:new 0 0 50 50;" xml:space="preserve">
<style type="text/css">
	.st0{fill:#FCCC12;}
	.st1{fill:#0A0909;}
	.st2{fill:#FFFFFF;}
	.st3{fill:#FEFEFD;}
	.st4{fill:#100F0F;}
	.st5{fill:#0E0E0D;}
	.st6{fill:#101010;}
	.st7{fill:#111111;}
	.st8{fill:#131312;}
	.st9{fill:#121111;}
	.st10{fill:#121212;}
	.st11{fill:#0A0A09;}
	.st12{fill:#0B0A0A;}
	.st13{fill:#090908;}
	.st14{fill:#16857D;}
	.st15{fill:#DEDEDC;}
	.st16{fill:#1B1A19;}
	.st17{fill:#090808;}
	.st18{fill:#080808;}
	.st19{fill:#0C0C0B;}
	.st20{fill:#070707;}
	.st21{fill:#525351;}
	.st22{fill:#93928E;}
	.st23{fill:#1F1F1E;}
	.st24{fill:#222120;}
	.st25{fill:#161515;}
	.st26{fill:#151514;}
	.st27{fill:#1A1919;}
	.st28{fill:#161615;}
	.st29{fill:#1C1B1B;}
	.st30{fill:#1D1C1C;}
	.st31{fill:#151414;}
	.st32{fill:#2A2928;}
	.st33{fill:#201F1F;}
	.st34{fill:#171717;}
	.st35{fill:#EE5179;}
	.st36{fill:#2F1E8A;}
</style>
<g>
	<path class="st14" d="M0.02,24.35c0-7.9,0.01-15.79-0.02-23.69c0-0.65,0.13-0.78,0.78-0.77c16.15,0.02,32.29,0.02,48.44,0
		c0.65,0,0.78,0.13,0.78,0.77c-0.02,16.15-0.03,32.3,0.01,48.46c0,0.8-0.31,0.77-0.89,0.77c-16.36-0.01-32.73-0.01-49.09-0.01
		c0-7.72,0-15.43,0-23.15c0.12-0.04,0.22-0.01,0.3,0.09c0.48,1.51,0.5,3.1,0.92,4.63c0.83,3.06,2.17,5.84,4.16,8.3
		c0.25,0.31,0.54,0.58,0.68,0.96c0.16,0.9,0.11,1.81,0.04,2.72c-0.31,1.24-0.18,2.5-0.15,3.75c0.02,1.01,0.59,1.28,1.42,0.7
		c0.94-0.66,1.82-1.42,2.66-2.2c0.58-0.53,1.06-0.64,1.8-0.21c2.78,1.63,5.8,2.53,9.01,2.8c1.36,0.01,2.73,0,4.09,0
		c3.15-0.24,6.16-1.05,8.85-2.69c5.2-3.16,8.89-7.57,10.53-13.48c0.36-1.31,0.96-2.26,2.11-2.96c0.83-0.51,1.62-1.08,2.38-1.71
		c0.35-0.28,0.64-0.61,0.55-1.1c-0.09-0.53-0.56-0.61-0.97-0.73c-0.63-0.18-1.26-0.32-1.91-0.43c-0.85-0.14-1.28-0.64-1.32-1.46
		c-0.2-3.7-1.47-7.04-3.39-10.15c-2.03-3.28-4.73-5.86-8.12-7.77c-2.43-1.37-4.94-2.48-7.72-2.63c-2.61-0.14-5.26-0.47-7.86,0.25
		c-1.03,0.29-1.99,0.15-2.94-0.31c-1.11-0.53-2.28-0.92-3.39-1.45c-0.4-0.19-0.84-0.32-1.23-0.01c-0.42,0.34-0.26,0.79-0.12,1.2
		c0.25,0.75,0.45,1.52,0.7,2.27c0.24,0.73,0.09,1.23-0.58,1.65C8.66,7.92,7.1,9.4,5.73,11.11c-2.75,3.43-4.54,7.25-5.03,11.65
		c-0.06,0.53-0.12,1.08-0.39,1.56C0.22,24.42,0.13,24.42,0.02,24.35z"/>
	<path class="st15" d="M0.19,26.72l-0.09,0.01l-0.09-0.01c0-0.79,0-1.59,0-2.38c0.06-0.01,0.12-0.01,0.18,0
		c0.11,0.07,0.18,0.16,0.23,0.28c0.12,0.67,0.2,1.33-0.09,1.98C0.29,26.65,0.24,26.68,0.19,26.72z"/>
	<path class="st16" d="M0.27,24.58c-0.02-0.08-0.05-0.15-0.07-0.23c0.48-5.65,2.5-10.61,6.49-14.76c1.18-1.23,2.45-2.3,3.88-3.2
		c0.42-0.27,0.49-0.48,0.32-0.93c-0.33-0.87-0.6-1.75-0.86-2.64c-0.14-0.48-0.33-1,0.11-1.42c0.46-0.44,0.99-0.31,1.51-0.09
		c1.42,0.61,2.85,1.2,4.26,1.82c0.52,0.23,1.01,0.29,1.57,0.14c1.54-0.4,3.11-0.64,4.71-0.62c2.89,0.03,5.78,0.16,8.48,1.33
		c2.8,1.22,5.51,2.66,7.68,4.82c3.79,3.76,6.21,8.27,7.04,13.57c0.12,0.79-0.28,1.81,0.46,2.31c0.61,0.4,1.53,0.32,2.29,0.54
		c0.61,0.18,1.48,0.05,1.63,0.96c0.14,0.83-0.39,1.32-1.04,1.7c-0.06,0.04-0.11,0.09-0.17,0.13c-2.29,1.29-3.7,3.05-4.51,5.71
		c-1.43,4.72-4.56,8.33-8.66,11.18c-3.1,2.16-6.49,3.23-10.17,3.65c-1.51-0.13-3.03-0.13-4.54,0c-3.43-0.35-6.67-1.25-9.53-3.24
		c-0.29-0.2-0.21,0-0.33,0.1c-1.09,0.94-2.2,1.85-3.29,2.79c-0.38,0.33-0.76,0.53-1.27,0.3c-0.51-0.23-0.62-0.64-0.6-1.15
		c0.06-1.25-0.09-2.51,0.21-3.75c0.2-1,0.29-2-0.03-3C3,37.68,1.48,34.12,0.65,30.22c-0.24-1.15-0.42-2.32-0.46-3.5
		c0,0,0.08,0.01,0.08,0.01C0.39,26.01,0.4,25.3,0.27,24.58z"/>
	<path class="st17" d="M20.66,48.55c1.51-0.31,3.03-0.3,4.54,0C23.69,48.67,22.18,48.67,20.66,48.55z"/>
	<path class="st1" d="M5.82,40.59c0.48,0.99,0.42,1.99,0.03,3C5.84,42.59,5.83,41.59,5.82,40.59z"/>
	<path class="st18" d="M0.27,24.58c0.3,0.72,0.29,1.44,0,2.16C0.27,26.01,0.27,25.3,0.27,24.58z"/>
	<path class="st14" d="M9.79,24.35c0.39-2.24,1.11-4.35,2.39-6.27c0.56-0.85,1.21-1.56,2.06-2.28c0.32,1.02,0.62,1.92,0.89,2.83
		c0.15,0.52,0.38,0.93,0.99,0.98c0.54,0.05,0.89-0.24,1.11-0.69c0.94-1.98,2.37-3.67,3.29-5.67c0.23-0.5,0.57-0.75,1.21-0.86
		c4.39-0.75,10.14,2.56,12.05,6.04c0.64,1.17,1.34,2.29,1.71,3.66c-0.94,0.13-1.76-0.3-2.62-0.43c-0.55-0.09-0.99-0.09-1.35,0.37
		c-0.36,0.48-0.23,0.94,0.02,1.41c0.91,1.71,1.68,3.51,2.77,5.1c0.96,1.4,0.68,2.55-0.09,3.79c-0.38,0.61-0.79,1.21-1.24,1.76
		c-3.4,4.22-9.07,5.93-14.01,4.18c0.63-0.54,1.23-1.05,1.82-1.56c0.46-0.39,0.76-0.88,0.59-1.49c-0.19-0.7-0.78-0.71-1.38-0.76
		c-2.23-0.2-4.45-0.46-6.68-0.64c-1.29-0.1-1.54-1.18-1.99-2.02c-0.74-1.39-1.15-2.91-1.52-4.44C9.6,26.37,9.64,25.36,9.79,24.35z"
		/>
	<path class="st2" d="M7.88,38.21c0.23-0.54,0.24-1.14,0.16-1.68c-0.16-1.12,0.33-1.27,1.29-1.15c2.31,0.28,4.63,0.47,6.95,0.7
		c0.32,0.29,0.82,0.05,1.12,0.38c0.07,0.1,0.6-0.13,0.22,0.26c-0.42,0.44-0.95,0.78-1.39,1.2c-0.56,0.53-0.58,1.22,0.11,1.52
		c2.35,1,4.72,2.03,7.39,1.6c0.47-0.38,0.97-0.29,1.47-0.07c0.43-0.45,1.04-0.38,1.58-0.51c3.94-1,6.87-3.31,9-6.71
		c0.19-0.3,0.38-0.61,0.63-1.01c0.36,0.64,0.7,1.2,1.02,1.78c0.45,0.81,1.08,0.9,1.8,0.41c0.97-0.67,1.92-1.38,3.12-2.25
		c-0.75,1.93-1.5,3.55-2.55,5.02c-2.34,3.28-5.34,5.7-9.08,7.37c-1.78,0.79-3.62,1.28-5.44,1.65c-1.66,0.34-3.48-0.08-5.23-0.21
		c-2.89-0.23-5.4-1.56-7.83-2.98c-1.12-0.65-1.94-0.73-2.83,0.25c-0.4,0.44-0.93,0.78-1.45,1.21c-0.27-0.41-0.04-0.81-0.14-1.17
		C7.73,41.94,7.59,40.08,7.88,38.21z"/>
	<path class="st2" d="M7.87,27.59c0.24,2.04,0.95,3.94,1.86,5.79c-0.81,0.14-1.54-0.13-2.29-0.18c-0.96-0.06-1.43,0.3-1.4,1.29
		c0.03,0.93,0.01,1.86-0.15,2.81c-1.39-2.08-2.55-4.23-3.04-6.68c-0.22-1.08-0.43-2.17-0.65-3.25C2,26.29,2,25.22,2.22,24.15
		c0.34-1.97,0.65-3.94,1.38-5.83c1.11-2.88,2.62-5.49,4.91-7.6c1.31-1.21,2.54-2.53,4.21-3.29c0.66-0.3,0.69-0.86,0.51-1.47
		c-0.18-0.63-0.39-1.26-0.67-2.18c2.14,1.25,4.15,2.11,6.19,2.92c0.27,0.11,0.53,0.24,0.79,0.35c1.72,0.72,1.81,0.77,1,2.23
		c-1.24,2.24-2.63,4.41-4.04,6.75c-0.3-0.85-0.55-1.54-0.79-2.23c-0.34-1.01-1.16-1.28-1.83-0.5c-0.45,0.52-0.99,0.92-1.47,1.38
		c-2.61,2.47-4.03,5.53-4.51,9.05C7.96,25.01,8,26.3,7.87,27.59z"/>
	<path class="st2" d="M25.61,4.91c2.1,0.49,4.22,0.89,6.15,1.9c7.09,3.7,10.99,9.54,11.68,17.47c0.17,1.95,0.1,1.95,2.1,2.45
		c0.21,0.05,0.54-0.13,0.6,0.26c0.05,0.33-0.23,0.42-0.42,0.56c-1.63,1.18-3.27,2.36-4.92,3.53c-0.69,0.49-1.15,1.28-2.03,1.57
		c-1.44-2.73-2.88-5.48-4.34-8.24c0.67-0.13,1.24,0.16,1.83,0.27c1.26,0.24,1.76-0.14,1.55-1.37c-0.58-3.38-2.07-6.26-4.55-8.72
		c-3.02-3-6.67-4.19-10.89-4.25c0.43-0.78,0.82-1.49,1.22-2.2c0.53-0.93,0.43-1.31-0.55-1.76c-0.68-0.32-1.4-0.56-2.07-0.9
		c-0.27-0.14-0.75-0.08-0.76-0.59c0.5-0.33,1-0.28,1.51-0.04c0.14,0,0.28,0,0.42-0.01c0.52-0.24,1.04-0.25,1.55,0.01
		c0.07,0.03,0.14,0.03,0.21-0.01C24.49,4.66,25.06,4.49,25.61,4.91z"/>
	<path class="st17" d="M7.88,38.21c-0.02,1.87-0.05,3.73-0.07,5.6C7.55,41.94,7.41,40.07,7.88,38.21z"/>
	<path class="st13" d="M7.87,27.59c-0.09-1.29-0.13-2.58,0.02-3.87C8.15,25.01,8.17,26.3,7.87,27.59z"/>
	<path class="st19" d="M25.61,4.91c-0.56-0.02-1.12-0.05-1.69-0.07c0.47-0.64,1.13-0.4,1.72-0.31C25.89,4.56,25.74,4.78,25.61,4.91z
		"/>
	<path class="st1" d="M25.21,40.97c-0.49,0.02-0.98,0.05-1.47,0.07c-0.1-0.1-0.24-0.31-0.11-0.34
		C24.18,40.58,24.79,40.27,25.21,40.97z"/>
	<path class="st17" d="M2.22,24.15c0,1.07,0,2.15,0,3.22C1.82,26.29,1.83,25.22,2.22,24.15z"/>
	<path class="st13" d="M21.73,4.85c-0.5,0.01-1.01,0.03-1.51,0.04C20.43,4.27,21.14,4.26,21.73,4.85z"/>
	<path class="st20" d="M9.79,24.35c0.01,1.01,0.01,2.01,0.02,3.02C9.43,26.37,9.45,25.36,9.79,24.35z"/>
	<path class="st21" d="M23.71,4.85c-0.52,0-1.03,0-1.55-0.01C22.68,4.2,23.19,4.2,23.71,4.85z"/>
	<path class="st22" d="M17.4,36.46c-0.42,0-0.9,0.2-1.12-0.38C16.72,36.03,17.17,35.91,17.4,36.46z"/>
	<path class="st23" d="M37.39,35.69c-0.17,0.26-0.16,0.71-0.57,0.77c-0.5,0.08-0.54-0.41-0.63-0.71c-0.1-0.35,0.09-0.61,0.51-0.63
		C37.09,35.11,37.31,35.29,37.39,35.69z"/>
	<path class="st24" d="M36.31,40.15c-0.01,0.41-0.37,0.58-0.63,0.61c-0.38,0.06-0.52-0.3-0.53-0.64c-0.02-0.34,0.21-0.54,0.52-0.55
		C36.01,39.57,36.27,39.76,36.31,40.15z"/>
	<path class="st24" d="M37.62,38.79c-0.4-0.11-0.66-0.32-0.61-0.68c0.04-0.29,0.29-0.53,0.6-0.51c0.34,0.02,0.63,0.24,0.61,0.61
		C38.21,38.59,37.87,38.69,37.62,38.79z"/>
	<path class="st25" d="M32.95,40.38c-0.35-0.01-0.57-0.14-0.6-0.5c-0.03-0.4,0.16-0.61,0.55-0.62c0.33-0.01,0.54,0.15,0.57,0.49
		C33.51,40.15,33.31,40.36,32.95,40.38z"/>
	<path class="st26" d="M34.92,37.31c0.35,0.06,0.58,0.26,0.51,0.65c-0.05,0.32-0.27,0.49-0.61,0.47c-0.4-0.03-0.56-0.29-0.52-0.65
		C34.33,37.43,34.56,37.29,34.92,37.31z"/>
	<path class="st27" d="M4.82,30.61c0.38,0.1,0.67,0.31,0.6,0.68c-0.05,0.31-0.12,0.71-0.63,0.71c-0.55-0.01-0.52-0.46-0.55-0.75
		C4.21,30.9,4.47,30.66,4.82,30.61z"/>
	<path class="st28" d="M7.35,32.4c-0.57-0.03-0.64-0.36-0.62-0.76c0.02-0.38,0.2-0.61,0.6-0.59c0.48,0.03,0.55,0.37,0.55,0.76
		C7.87,32.22,7.65,32.39,7.35,32.4z"/>
	<path class="st29" d="M4.05,28.06c0.34,0.12,0.6,0.3,0.53,0.7c-0.06,0.35-0.32,0.47-0.63,0.46c-0.32-0.02-0.54-0.18-0.52-0.55
		C3.44,28.26,3.69,28.11,4.05,28.06z"/>
	<path class="st30" d="M5.68,26.79c-0.38,0-0.65-0.2-0.63-0.56c0.02-0.32,0.28-0.59,0.65-0.58c0.32,0.01,0.54,0.25,0.56,0.54
		C6.29,26.56,6.06,26.78,5.68,26.79z"/>
	<path class="st25" d="M6.52,28.45c0.36,0.1,0.54,0.33,0.51,0.71C7,29.54,6.75,29.63,6.43,29.6c-0.33-0.03-0.54-0.19-0.54-0.54
		C5.89,28.65,6.19,28.54,6.52,28.45z"/>
	<path class="st31" d="M28.31,9.71c0,0.1-0.11,0.39-0.53,0.38c-0.44,0-0.63-0.24-0.62-0.68c0.01-0.37,0.14-0.62,0.54-0.65
		C28.19,8.73,28.29,9.05,28.31,9.71z"/>
	<path class="st25" d="M24.92,9.42c-0.23-0.22-0.42-0.52-0.4-0.92c0.02-0.4,0.31-0.43,0.6-0.41c0.38,0.03,0.63,0.26,0.51,0.63
		C25.54,9.01,25.49,9.44,24.92,9.42z"/>
	<path class="st32" d="M31.1,10.28c-0.06,0.37-0.3,0.57-0.65,0.58c-0.32,0.01-0.57-0.2-0.58-0.52c-0.02-0.36,0.2-0.64,0.57-0.65
		C30.78,9.68,31.02,9.9,31.1,10.28z"/>
	<path class="st33" d="M27.41,6.76c-0.08,0.41-0.31,0.62-0.66,0.63c-0.31,0.01-0.56-0.18-0.58-0.51c-0.02-0.36,0.18-0.63,0.55-0.65
		C27.09,6.21,27.26,6.5,27.41,6.76z"/>
	<path class="st34" d="M29.49,8.14c-0.38-0.08-0.62-0.25-0.62-0.65c0-0.38,0.25-0.51,0.56-0.51c0.31,0,0.55,0.13,0.59,0.5
		C30.06,7.9,29.77,8.02,29.49,8.14z"/>
</g>
</svg>
