<?xml version="1.0" encoding="utf-8"?>
<!-- Generator: Adobe Illustrator 28.1.0, SVG Export Plug-In . SVG Version: 6.00 Build 0)  -->
<svg version="1.1" id="Layer_1" xmlns="http://www.w3.org/2000/svg" xmlns:xlink="http://www.w3.org/1999/xlink" x="0px" y="0px"
	 viewBox="0 0 50 50" style="enable-background:new 0 0 50 50;" xml:space="preserve">
<style type="text/css">
	.st0{fill:#FCCC12;}
	.st1{fill:#0A0909;}
	.st2{fill:#FFFFFF;}
	.st3{fill:#FEFEFD;}
	.st4{fill:#100F0F;}
	.st5{fill:#0E0E0D;}
	.st6{fill:#101010;}
	.st7{fill:#111111;}
	.st8{fill:#131312;}
	.st9{fill:#121111;}
	.st10{fill:#121212;}
	.st11{fill:#0A0A09;}
	.st12{fill:#0B0A0A;}
	.st13{fill:#090908;}
	.st14{fill:#16857D;}
	.st15{fill:#DEDEDC;}
	.st16{fill:#1B1A19;}
	.st17{fill:#090808;}
	.st18{fill:#080808;}
	.st19{fill:#0C0C0B;}
	.st20{fill:#070707;}
	.st21{fill:#525351;}
	.st22{fill:#93928E;}
	.st23{fill:#1F1F1E;}
	.st24{fill:#222120;}
	.st25{fill:#161515;}
	.st26{fill:#151514;}
	.st27{fill:#1A1919;}
	.st28{fill:#161615;}
	.st29{fill:#1C1B1B;}
	.st30{fill:#1D1C1C;}
	.st31{fill:#151414;}
	.st32{fill:#2A2928;}
	.st33{fill:#201F1F;}
	.st34{fill:#171717;}
	.st35{fill:#EE5179;}
	.st36{fill:#2F1E8A;}
</style>
<g>
	<path d="M50,0.88c0,0.12,0,0.23,0,0.35c-0.12,0.47-0.21,0.95-0.37,1.41c-1.01,2.87-2.02,5.73-3.05,8.59
		c-0.07,0.2-0.22,0.39-0.37,0.55c-0.39,0.41-0.81,0.8-1.21,1.21c-3.53,3.53-7.07,7.05-10.6,10.58c-0.23,0.23-0.46,0.45-0.69,0.68
		c-0.25,0.25-0.5,0.5-0.78,0.78c0.08,0.06,0.14,0.09,0.19,0.14c5.43,5.43,10.87,10.86,16.3,16.28c0.23,0.23,0.46,0.47,0.58,0.79
		c0,0.14,0,0.29,0,0.43c-0.05,0.15-0.1,0.3-0.15,0.45c-0.54,1.61-1.45,2.98-2.66,4.19c-1.21,1.21-2.61,2.06-4.23,2.58
		c-0.53,0.17-0.96,0.06-1.35-0.33c-5.46-5.46-10.92-10.92-16.39-16.38c-0.06-0.06-0.1-0.16-0.16-0.26
		c-0.11,0.13-0.16,0.18-0.21,0.23c-4.8,4.8-9.61,9.59-14.41,14.39c-0.69,0.69-1.38,1.37-2.06,2.06c-0.36,0.37-0.77,0.46-1.26,0.31
		c-2.52-0.78-4.42-2.36-5.87-4.52C0.66,44.52,0.27,43.56,0,42.54c0-0.04,0-0.09,0-0.13c0.07-0.42,0.35-0.7,0.63-0.99
		c3.54-3.53,7.08-7.06,10.62-10.59c1.88-1.88,3.76-3.76,5.64-5.64c0.05-0.05,0.14-0.07,0.24-0.12c-0.15-0.14-0.22-0.19-0.28-0.25
		c-4.33-4.33-8.67-8.66-12.99-12.99c-0.2-0.2-0.37-0.45-0.46-0.71C2.58,8.88,1.76,6.64,0.97,4.39C0.63,3.41,0.35,2.41,0.07,1.42
		C0,1.15-0.02,0.86,0.14,0.6C0.4,0.18,0.89-0.03,1.37,0.09c0.32,0.08,0.65,0.15,0.96,0.26c2.92,1.02,5.84,2.03,8.75,3.07
		c0.26,0.09,0.52,0.26,0.72,0.46c4.35,4.33,8.69,8.67,13.03,13.01c0.06,0.06,0.09,0.15,0.14,0.22c0.03-0.01,0.06-0.01,0.1-0.02
		c0.05-0.07,0.09-0.15,0.15-0.21c1.75-1.76,3.51-3.52,5.27-5.28c2.55-2.55,5.09-5.1,7.64-7.65c0.26-0.26,0.55-0.45,0.9-0.57
		c2.13-0.76,4.25-1.53,6.38-2.28c1-0.35,2.02-0.66,3.04-0.98C49.1-0.09,49.76,0.16,50,0.88z M18.55,26.56
		c-0.04,0.04-0.09,0.09-0.14,0.14c-2.1,2.1-4.2,4.19-6.3,6.29c-1.72,1.72-3.45,3.44-5.17,5.16c-0.48,0.48-0.47,0.47-0.18,1.09
		c0.45,0.94,1.11,1.72,1.85,2.45c0.77,0.75,1.62,1.35,2.61,1.77c0.14,0.06,0.23,0.06,0.34-0.06c0.25-0.26,0.51-0.51,0.77-0.76
		c3.68-3.67,7.35-7.34,11.03-11.01c0.05-0.05,0.09-0.1,0.13-0.13C21.83,29.83,20.2,28.2,18.55,26.56z M31.48,23.49
		c4.05-4.06,8.09-8.12,12.15-12.19c-1.04-0.53-1.96-1.23-2.8-2.07c-0.84-0.84-1.56-1.75-2.07-2.78c-4.06,4.05-8.13,8.11-12.18,12.15
		C28.2,20.2,29.83,21.83,31.48,23.49z M8.57,9.86c10.77,10.76,21.54,21.52,32.32,32.29c0.37-0.37,0.76-0.76,1.12-1.11
		C31.22,30.26,20.44,19.5,9.67,8.73C9.31,9.1,8.94,9.48,8.57,9.86z M42.88,39.97c0.18-0.38,0.36-0.76,0.56-1.13
		c0.09-0.18,0.07-0.3-0.08-0.44C32.72,27.78,22.09,17.16,11.46,6.54c-0.05-0.05-0.1-0.1-0.16-0.15c-0.26,0.44-0.52,0.87-0.76,1.27
		C21.32,18.42,32.08,29.18,42.88,39.97z M6.33,11.34c0.07,0.05,0.14,0.09,0.2,0.15c10.63,10.62,21.26,21.25,31.9,31.87
		c0.03,0.03,0.05,0.06,0.08,0.07c0.07,0.02,0.15,0.06,0.21,0.04c0.36-0.16,0.72-0.33,1.05-0.48C28.98,32.22,18.21,21.45,7.44,10.69
		C7.1,10.89,6.74,11.1,6.33,11.34z M40.22,45.16c0.8,0.8,1.6,1.59,2.38,2.38c0.12,0.13,0.22,0.15,0.39,0.08
		c1.16-0.47,2.12-1.21,2.97-2.1c0.72-0.76,1.29-1.61,1.69-2.58c0.05-0.12,0.04-0.2-0.06-0.3c-0.77-0.76-1.54-1.53-2.31-2.3
		c-0.04-0.04-0.08-0.07-0.12-0.1C44,42.36,42.37,44,40.22,45.16z M4.87,40.22c-0.06,0.06-0.11,0.11-0.16,0.15
		c-0.74,0.74-1.49,1.49-2.24,2.23c-0.13,0.12-0.15,0.22-0.08,0.39c0.44,1.05,1.08,1.95,1.89,2.75c0.81,0.8,1.71,1.45,2.76,1.89
		c0.14,0.06,0.22,0.05,0.34-0.06c0.76-0.77,1.53-1.53,2.29-2.29c0.04-0.04,0.07-0.08,0.12-0.14c-1.07-0.55-1.99-1.25-2.83-2.09
		C6.12,42.21,5.41,41.29,4.87,40.22z M9.52,5.13C9.5,5.11,9.49,5.1,9.48,5.09C7.94,4.54,6.4,3.99,4.86,3.45
		c-0.05-0.02-0.17,0.03-0.2,0.08C4.39,4.01,4.02,4.4,3.57,4.71c-0.14,0.09-0.16,0.18-0.1,0.33C3.99,6.46,4.5,7.88,5.01,9.3
		C5.04,9.38,5.07,9.46,5.1,9.54C6.54,9.09,8.95,6.7,9.52,5.13z M44.92,9.59c0.57-1.6,1.12-3.16,1.68-4.7
		c0.05-0.13-0.03-0.17-0.11-0.21c-0.47-0.26-0.84-0.62-1.15-1.06c-0.04-0.06-0.1-0.12-0.15-0.18c-1.57,0.56-3.13,1.12-4.73,1.7
		C41.46,7.11,42.95,8.56,44.92,9.59z"/>
	<path class="st36" d="M50,0.88c-0.24-0.72-0.9-0.97-1.56-0.76c-1.01,0.32-2.04,0.63-3.04,0.98c-2.13,0.75-4.25,1.52-6.38,2.28
		c-0.35,0.12-0.64,0.31-0.9,0.57c-2.54,2.55-5.09,5.1-7.64,7.65c-1.76,1.76-3.51,3.52-5.27,5.28c-0.06,0.06-0.1,0.14-0.15,0.21
		c-0.03,0.01-0.06,0.01-0.1,0.02c-0.05-0.07-0.08-0.16-0.14-0.22C20.49,12.54,16.15,8.2,11.8,3.87c-0.2-0.2-0.46-0.36-0.72-0.46
		C8.17,2.38,5.25,1.36,2.33,0.35C2.02,0.24,1.69,0.16,1.37,0.09C0.89-0.03,0.4,0.18,0.14,0.6C-0.02,0.86,0,1.15,0.07,1.42
		c0.28,0.99,0.55,2,0.89,2.97c0.79,2.25,1.61,4.49,2.44,6.73c0.1,0.26,0.27,0.52,0.46,0.71c4.33,4.34,8.66,8.66,12.99,12.99
		c0.06,0.06,0.13,0.12,0.28,0.25c-0.1,0.05-0.19,0.07-0.24,0.12c-1.88,1.88-3.76,3.76-5.64,5.64C7.72,34.36,4.18,37.9,0.63,41.42
		C0.35,41.71,0.07,41.99,0,42.41C0,28.27,0,14.13,0-0.02c16.67,0,33.33,0,50,0C50,0.28,50,0.58,50,0.88z"/>
	<path class="st36" d="M0,42.54c0.27,1.01,0.66,1.98,1.25,2.85c1.45,2.16,3.35,3.74,5.87,4.52c0.49,0.15,0.9,0.06,1.26-0.31
		c0.68-0.69,1.37-1.38,2.06-2.06c4.8-4.8,9.61-9.59,14.41-14.39c0.05-0.05,0.1-0.11,0.21-0.23c0.06,0.1,0.1,0.19,0.16,0.26
		c5.46,5.46,10.93,10.92,16.39,16.38c0.4,0.4,0.82,0.51,1.35,0.33c1.62-0.53,3.02-1.38,4.23-2.58c1.21-1.2,2.11-2.57,2.66-4.19
		c0.05-0.15,0.1-0.3,0.15-0.45c0,2.45,0,4.9,0,7.35c-16.67,0-33.33,0-50,0C0,47.53,0,45.04,0,42.54z"/>
	<path class="st36" d="M50,42.24c-0.11-0.32-0.34-0.55-0.58-0.79c-5.43-5.43-10.87-10.85-16.3-16.28c-0.05-0.05-0.11-0.09-0.19-0.14
		c0.28-0.28,0.53-0.53,0.78-0.78c0.23-0.23,0.46-0.45,0.69-0.68c3.53-3.53,7.07-7.05,10.6-10.58c0.4-0.4,0.82-0.79,1.21-1.21
		c0.15-0.16,0.29-0.35,0.37-0.55c1.03-2.86,2.04-5.73,3.05-8.59C49.79,2.18,49.88,1.7,50,1.23C50,14.9,50,28.57,50,42.24z"/>
	<path class="st2" d="M18.55,26.56c1.64,1.64,3.28,3.28,4.93,4.93c-0.03,0.04-0.08,0.09-0.13,0.13c-3.68,3.67-7.35,7.34-11.03,11.01
		c-0.25,0.25-0.52,0.5-0.77,0.76c-0.11,0.12-0.2,0.12-0.34,0.06c-0.99-0.42-1.85-1.02-2.61-1.77c-0.74-0.73-1.4-1.51-1.85-2.45
		c-0.3-0.61-0.3-0.61,0.18-1.09c1.72-1.72,3.44-3.44,5.17-5.16c2.1-2.1,4.2-4.19,6.3-6.29C18.46,26.64,18.51,26.59,18.55,26.56z
		 M14.85,34.03c-0.36,0-0.65,0.29-0.66,0.64c0,0.35,0.3,0.65,0.65,0.65c0.35,0,0.63-0.29,0.64-0.63
		C15.49,34.33,15.21,34.04,14.85,34.03z M16.63,33.51c0.37,0,0.65-0.27,0.65-0.63c0-0.36-0.26-0.63-0.62-0.64
		c-0.37-0.01-0.65,0.26-0.66,0.62C16,33.23,16.27,33.51,16.63,33.51z M15.74,38.01c0.36,0,0.65-0.28,0.64-0.64
		c0-0.36-0.29-0.64-0.65-0.63c-0.35,0-0.63,0.28-0.63,0.63C15.1,37.73,15.38,38.01,15.74,38.01z M19.35,33.13
		c-0.35-0.01-0.65,0.28-0.66,0.64c0,0.34,0.28,0.63,0.63,0.64c0.36,0.01,0.65-0.27,0.66-0.62C19.99,33.43,19.71,33.14,19.35,33.13z
		 M20.23,28.64c-0.35,0.01-0.64,0.3-0.64,0.66c0.01,0.35,0.31,0.64,0.66,0.63c0.35-0.01,0.63-0.3,0.63-0.64
		C20.88,28.92,20.58,28.63,20.23,28.64z M14.58,39.17c0-0.36-0.28-0.64-0.64-0.64c-0.35,0-0.63,0.28-0.64,0.63
		c-0.01,0.36,0.28,0.65,0.63,0.66C14.29,39.82,14.58,39.52,14.58,39.17z M18.45,30.44c-0.36-0.01-0.65,0.27-0.66,0.63
		c0,0.36,0.28,0.65,0.64,0.65c0.35,0,0.63-0.27,0.64-0.62C19.09,30.73,18.81,30.44,18.45,30.44z M10.08,40.07
		c0-0.37-0.27-0.65-0.63-0.65c-0.36,0-0.65,0.29-0.65,0.64c0,0.35,0.28,0.63,0.63,0.64C9.79,40.72,10.08,40.44,10.08,40.07z
		 M12.16,41.6c0.35,0,0.62-0.28,0.62-0.63c0-0.37-0.28-0.65-0.64-0.65c-0.36,0-0.64,0.29-0.64,0.65
		C11.51,41.33,11.79,41.6,12.16,41.6z M21.13,32.61c0.37,0,0.64-0.27,0.65-0.63c0-0.36-0.28-0.64-0.64-0.64
		c-0.35,0-0.63,0.28-0.63,0.63C20.5,32.33,20.77,32.61,21.13,32.61z M16.91,35.57c0,0.36,0.28,0.65,0.64,0.64
		c0.35,0,0.63-0.28,0.64-0.63c0-0.36-0.28-0.65-0.64-0.65C17.18,34.93,16.91,35.21,16.91,35.57z M13.05,37.11
		c0.36,0,0.64-0.28,0.64-0.65c0-0.35-0.28-0.63-0.63-0.63c-0.36,0-0.64,0.28-0.65,0.64C12.41,36.83,12.68,37.11,13.05,37.11z
		 M11.89,38.26c0-0.36-0.3-0.64-0.66-0.63c-0.36,0.01-0.64,0.3-0.63,0.66c0.01,0.35,0.29,0.62,0.65,0.62
		C11.61,38.9,11.89,38.62,11.89,38.26z"/>
	<path class="st2" d="M31.48,23.49c-1.65-1.65-3.28-3.28-4.91-4.9c4.05-4.04,8.11-8.09,12.18-12.15c0.51,1.03,1.23,1.95,2.07,2.78
		c0.84,0.84,1.76,1.54,2.8,2.07C39.57,15.36,35.53,19.42,31.48,23.49z M32.57,21.19c0-0.36-0.29-0.64-0.65-0.64
		c-0.36,0-0.64,0.3-0.63,0.65c0.01,0.35,0.29,0.63,0.64,0.63C32.29,21.83,32.57,21.54,32.57,21.19z M38.23,11.94
		c0.35,0,0.65-0.29,0.65-0.64c0-0.35-0.3-0.65-0.65-0.64c-0.34,0.01-0.63,0.29-0.64,0.64C37.58,11.65,37.87,11.94,38.23,11.94z
		 M32.83,16.05c-0.35,0-0.65,0.31-0.64,0.66c0.01,0.34,0.3,0.63,0.64,0.63c0.35,0,0.65-0.29,0.65-0.65
		C33.48,16.34,33.18,16.05,32.83,16.05z M29.88,20.28c0-0.35-0.31-0.65-0.66-0.64c-0.35,0.01-0.63,0.3-0.63,0.64
		c0,0.35,0.29,0.65,0.65,0.65C29.59,20.93,29.88,20.64,29.88,20.28z M41.57,12.22c0.01-0.36-0.27-0.66-0.62-0.66
		c-0.36-0.01-0.65,0.28-0.66,0.63c-0.01,0.36,0.28,0.65,0.63,0.66C41.27,12.85,41.56,12.57,41.57,12.22z M33.72,20.03
		c0.36,0,0.65-0.28,0.65-0.63c0-0.35-0.29-0.64-0.65-0.64c-0.35,0-0.63,0.28-0.64,0.62C33.08,19.73,33.37,20.03,33.72,20.03z
		 M34.64,15.53c0.36,0,0.64-0.29,0.63-0.65c-0.01-0.35-0.28-0.63-0.63-0.63c-0.36,0-0.64,0.28-0.64,0.64
		C33.99,15.26,34.27,15.54,34.64,15.53z M37.98,15.8c0-0.35-0.29-0.65-0.64-0.65c-0.35,0-0.65,0.29-0.65,0.65
		c0,0.34,0.29,0.63,0.63,0.64C37.67,16.45,37.97,16.16,37.98,15.8z M36.43,12.46c-0.37,0-0.64,0.27-0.64,0.64
		c0,0.36,0.29,0.64,0.65,0.64c0.35,0,0.63-0.28,0.63-0.63C37.07,12.74,36.8,12.46,36.43,12.46z M35.53,16.95
		c-0.36,0-0.63,0.28-0.63,0.65c0,0.36,0.29,0.64,0.65,0.63c0.36-0.01,0.62-0.29,0.62-0.66C36.16,17.22,35.88,16.95,35.53,16.95z
		 M39.13,14.63c0.37,0,0.64-0.28,0.64-0.64c0-0.36-0.28-0.63-0.65-0.63c-0.35,0-0.63,0.28-0.63,0.63
		C38.49,14.36,38.77,14.63,39.13,14.63z M31.67,18.5c0-0.37-0.26-0.64-0.63-0.64c-0.37,0-0.64,0.27-0.64,0.64
		c0,0.36,0.26,0.63,0.62,0.63C31.4,19.13,31.67,18.87,31.67,18.5z"/>
	<path class="st2" d="M8.57,9.86c0.37-0.38,0.75-0.76,1.1-1.12C20.44,19.5,31.22,30.26,42,41.03c-0.36,0.35-0.74,0.74-1.12,1.11
		C30.11,31.38,19.33,20.61,8.57,9.86z"/>
	<path class="st2" d="M42.88,39.97C32.08,29.18,21.32,18.42,10.54,7.66c0.24-0.4,0.5-0.83,0.76-1.27c0.06,0.05,0.11,0.1,0.16,0.15
		c10.63,10.62,21.26,21.24,31.89,31.85c0.15,0.15,0.18,0.26,0.08,0.44C43.24,39.21,43.06,39.59,42.88,39.97z"/>
	<path class="st2" d="M6.33,11.34c0.41-0.24,0.77-0.45,1.1-0.65c10.77,10.76,21.54,21.52,32.33,32.3c-0.33,0.15-0.69,0.33-1.05,0.48
		c-0.05,0.02-0.14-0.02-0.21-0.04c-0.03-0.01-0.05-0.05-0.08-0.07C27.8,32.73,17.16,22.11,6.53,11.49
		C6.48,11.43,6.41,11.4,6.33,11.34z"/>
	<path class="st2" d="M40.22,45.16c2.15-1.16,3.77-2.8,4.93-4.93c0.04,0.03,0.09,0.06,0.12,0.1c0.77,0.77,1.54,1.54,2.31,2.3
		c0.1,0.1,0.11,0.17,0.06,0.3c-0.4,0.97-0.97,1.82-1.69,2.58c-0.85,0.9-1.81,1.64-2.97,2.1c-0.17,0.07-0.26,0.05-0.39-0.08
		C41.82,46.74,41.03,45.96,40.22,45.16z"/>
	<path class="st2" d="M4.87,40.22c0.54,1.08,1.25,1.99,2.09,2.83c0.84,0.83,1.76,1.54,2.83,2.09c-0.05,0.06-0.08,0.1-0.12,0.14
		c-0.76,0.76-1.53,1.53-2.29,2.29c-0.11,0.11-0.2,0.12-0.34,0.06C6,47.19,5.1,46.55,4.29,45.74c-0.81-0.8-1.45-1.71-1.89-2.75
		c-0.07-0.17-0.04-0.27,0.08-0.39c0.75-0.74,1.49-1.48,2.24-2.23C4.76,40.32,4.81,40.28,4.87,40.22z"/>
	<path class="st2" d="M9.52,5.13C8.95,6.7,6.54,9.09,5.1,9.54C5.07,9.46,5.04,9.38,5.01,9.3C4.5,7.88,3.99,6.46,3.47,5.04
		c-0.06-0.15-0.04-0.24,0.1-0.33c0.45-0.31,0.82-0.7,1.09-1.18c0.03-0.05,0.15-0.1,0.2-0.08C6.4,3.99,7.94,4.54,9.48,5.09
		C9.49,5.1,9.5,5.11,9.52,5.13z"/>
	<path class="st2" d="M44.92,9.59c-1.97-1.03-3.46-2.48-4.47-4.46c1.59-0.57,3.16-1.13,4.73-1.7c0.05,0.06,0.11,0.12,0.15,0.18
		c0.31,0.43,0.69,0.79,1.15,1.06c0.08,0.05,0.16,0.08,0.11,0.21C46.04,6.43,45.49,7.98,44.92,9.59z"/>
	<path d="M14.85,34.03c0.36,0,0.64,0.3,0.63,0.66c-0.01,0.35-0.29,0.63-0.64,0.63c-0.34,0-0.65-0.3-0.65-0.65
		C14.2,34.32,14.5,34.03,14.85,34.03z"/>
	<path d="M16.63,33.51c-0.36,0-0.64-0.29-0.63-0.65c0.01-0.36,0.29-0.63,0.66-0.62c0.36,0.01,0.62,0.28,0.62,0.64
		C17.28,33.24,17,33.51,16.63,33.51z"/>
	<path d="M15.74,38.01c-0.36,0-0.64-0.28-0.64-0.64c0-0.35,0.28-0.63,0.63-0.63c0.36,0,0.65,0.27,0.65,0.63
		C16.39,37.72,16.1,38.01,15.74,38.01z"/>
	<path d="M19.35,33.13c0.36,0.01,0.64,0.3,0.63,0.66c-0.01,0.36-0.3,0.63-0.66,0.62c-0.35-0.01-0.63-0.3-0.63-0.64
		C18.7,33.41,19,33.12,19.35,33.13z"/>
	<path d="M20.23,28.64c0.35-0.01,0.65,0.29,0.65,0.64c0,0.35-0.28,0.63-0.63,0.64c-0.35,0.01-0.66-0.27-0.66-0.63
		C19.59,28.94,19.88,28.64,20.23,28.64z"/>
	<path d="M14.58,39.17c0,0.36-0.3,0.65-0.65,0.65c-0.35-0.01-0.64-0.3-0.63-0.66c0.01-0.35,0.29-0.63,0.64-0.63
		C14.3,38.52,14.58,38.8,14.58,39.17z"/>
	<path d="M18.45,30.44c0.36,0.01,0.64,0.3,0.63,0.66c-0.01,0.35-0.29,0.62-0.64,0.62c-0.36,0-0.64-0.29-0.64-0.65
		C17.8,30.71,18.09,30.43,18.45,30.44z"/>
	<path d="M10.08,40.07c0,0.36-0.29,0.64-0.65,0.63c-0.35-0.01-0.63-0.29-0.63-0.64c0-0.36,0.29-0.64,0.65-0.64
		C9.81,39.43,10.09,39.71,10.08,40.07z"/>
	<path d="M12.16,41.6c-0.37,0-0.65-0.27-0.65-0.63c0-0.36,0.28-0.65,0.64-0.65c0.36,0,0.64,0.28,0.64,0.65
		C12.78,41.32,12.51,41.6,12.16,41.6z"/>
	<path d="M21.13,32.61c-0.37,0-0.63-0.28-0.63-0.65c0-0.35,0.28-0.63,0.63-0.63c0.36,0,0.64,0.28,0.64,0.64
		C21.78,32.34,21.5,32.61,21.13,32.61z"/>
	<path d="M16.91,35.57c0-0.36,0.28-0.64,0.64-0.64c0.36,0,0.64,0.29,0.64,0.65c0,0.35-0.28,0.63-0.64,0.63
		C17.19,36.22,16.9,35.93,16.91,35.57z"/>
	<path d="M13.05,37.11c-0.37,0-0.64-0.27-0.64-0.64c0-0.36,0.29-0.64,0.65-0.64c0.35,0,0.63,0.28,0.63,0.63
		C13.69,36.82,13.41,37.1,13.05,37.11z"/>
	<path d="M11.89,38.26c0,0.36-0.28,0.65-0.64,0.65c-0.35,0-0.64-0.27-0.65-0.62c-0.01-0.36,0.27-0.65,0.63-0.66
		C11.59,37.62,11.88,37.9,11.89,38.26z"/>
	<path d="M32.57,21.19c0,0.36-0.29,0.65-0.64,0.65c-0.34,0-0.63-0.28-0.64-0.63c-0.01-0.36,0.28-0.65,0.63-0.65
		C32.29,20.54,32.57,20.83,32.57,21.19z"/>
	<path d="M38.23,11.94c-0.36,0-0.65-0.3-0.64-0.65c0.01-0.34,0.29-0.63,0.64-0.64c0.35-0.01,0.65,0.29,0.65,0.64
		C38.88,11.65,38.58,11.95,38.23,11.94z"/>
	<path d="M32.83,16.05c0.36,0,0.65,0.29,0.65,0.64c0,0.35-0.29,0.65-0.65,0.65c-0.34,0-0.63-0.29-0.64-0.63
		C32.18,16.36,32.47,16.06,32.83,16.05z"/>
	<path d="M29.88,20.28c0,0.35-0.29,0.65-0.64,0.65c-0.35,0-0.65-0.29-0.65-0.65c0-0.34,0.29-0.63,0.63-0.64
		C29.57,19.64,29.87,19.93,29.88,20.28z"/>
	<path d="M41.57,12.22c-0.01,0.35-0.3,0.63-0.64,0.62c-0.36,0-0.64-0.3-0.63-0.66c0.01-0.36,0.3-0.64,0.66-0.63
		C41.3,11.57,41.58,11.86,41.57,12.22z"/>
	<path d="M33.72,20.03c-0.36,0-0.64-0.3-0.63-0.65c0.01-0.35,0.29-0.62,0.64-0.62c0.36,0,0.65,0.29,0.65,0.64
		C34.37,19.75,34.08,20.03,33.72,20.03z"/>
	<path d="M34.64,15.53c-0.36,0-0.64-0.27-0.64-0.64c0-0.36,0.28-0.64,0.64-0.64c0.35,0,0.63,0.27,0.63,0.63
		C35.28,15.25,35,15.53,34.64,15.53z"/>
	<path d="M37.98,15.8c0,0.35-0.31,0.64-0.66,0.63c-0.34-0.01-0.63-0.3-0.63-0.64c0-0.35,0.3-0.65,0.65-0.65
		C37.69,15.15,37.98,15.45,37.98,15.8z"/>
	<path d="M36.43,12.46c0.37,0,0.64,0.28,0.64,0.64c0,0.35-0.28,0.63-0.63,0.63c-0.36,0-0.65-0.28-0.65-0.64
		C35.79,12.74,36.07,12.46,36.43,12.46z"/>
	<path d="M35.53,16.95c0.35,0,0.63,0.27,0.64,0.62c0.01,0.37-0.26,0.65-0.62,0.66c-0.36,0.01-0.65-0.26-0.65-0.63
		C34.89,17.24,35.16,16.96,35.53,16.95z"/>
	<path d="M39.13,14.63c-0.37,0-0.64-0.27-0.64-0.64c0-0.35,0.27-0.63,0.63-0.63c0.37,0,0.65,0.26,0.65,0.63
		C39.77,14.35,39.5,14.63,39.13,14.63z"/>
	<path d="M31.67,18.5c0,0.37-0.27,0.63-0.65,0.63c-0.36,0-0.62-0.27-0.62-0.63c0-0.37,0.27-0.64,0.64-0.64
		C31.41,17.86,31.67,18.13,31.67,18.5z"/>
</g>
</svg>
