<?xml version="1.0" encoding="utf-8"?>
<!-- Generator: Adobe Illustrator 28.1.0, SVG Export Plug-In . SVG Version: 6.00 Build 0)  -->
<svg version="1.1" id="Layer_1" xmlns="http://www.w3.org/2000/svg" xmlns:xlink="http://www.w3.org/1999/xlink" x="0px" y="0px"
	 viewBox="0 0 50 50" style="enable-background:new 0 0 50 50;" xml:space="preserve">
<style type="text/css">
	.st0{fill:#FCCC12;}
	.st1{fill:#0A0909;}
	.st2{fill:#FFFFFF;}
	.st3{fill:#FEFEFD;}
	.st4{fill:#100F0F;}
	.st5{fill:#0E0E0D;}
	.st6{fill:#101010;}
	.st7{fill:#111111;}
	.st8{fill:#131312;}
	.st9{fill:#121111;}
	.st10{fill:#121212;}
	.st11{fill:#0A0A09;}
	.st12{fill:#0B0A0A;}
	.st13{fill:#090908;}
	.st14{fill:#16857D;}
	.st15{fill:#DEDEDC;}
	.st16{fill:#1B1A19;}
	.st17{fill:#090808;}
	.st18{fill:#080808;}
	.st19{fill:#0C0C0B;}
	.st20{fill:#070707;}
	.st21{fill:#525351;}
	.st22{fill:#93928E;}
	.st23{fill:#1F1F1E;}
	.st24{fill:#222120;}
	.st25{fill:#161515;}
	.st26{fill:#151514;}
	.st27{fill:#1A1919;}
	.st28{fill:#161615;}
	.st29{fill:#1C1B1B;}
	.st30{fill:#1D1C1C;}
	.st31{fill:#151414;}
	.st32{fill:#2A2928;}
	.st33{fill:#201F1F;}
	.st34{fill:#171717;}
	.st35{fill:#EE5179;}
	.st36{fill:#2F1E8A;}
</style>
<g>
	<path class="st35" d="M50,50c-16.67,0-33.33,0-50,0C0,33.33,0,16.67,0,0c16.67,0,33.33,0,50,0C50,16.67,50,33.33,50,50z
		 M13.67,31.1c0.06,0.09,0.11,0.18,0.17,0.27c-2.96-0.04-5.09,1.72-5.58,4.6c-0.13,0.75-0.29,1.56,0.81,1.55
		c0.17,1.66-0.18,2.92-1.84,3.48c-0.22,0.07-0.53,0.48-0.48,0.63c0.08,0.26,0.38,0.55,0.65,0.64c1.79,0.59,3.51,0.37,5.14-0.56
		c0.56-0.32,1.08-0.7,1.71-1.11c0.04,1.31,0.7,1.23,1.49,0.82c2.05-1.04,3.27-2.62,3.15-4.8c0.67-0.56,1.23-0.99,1.75-1.47
		c0.51-0.48,0.89-1.22,2.05-0.6c-0.55,0.47-0.96,0.92-1.46,1.22c-0.94,0.56-1.26,1.33-1.24,2.4c0.03,1.41-0.06,2.81-0.11,4.22
		c-0.05,1.44,0.29,1.67,1.63,1.05c2.58-1.2,4.83-2.86,6.78-4.94c0.84-0.9,1.33-1.68,1.05-3.1c-0.42-2.11,0.12-3.96,2.15-5.37
		c4.03-2.79,7.02-6.56,9.23-10.92c1.31-2.59,2.31-5.3,2.21-8.28c-0.08-2.21-1.06-3.29-3.25-3.44c-1.02-0.07-2.09,0-3.08,0.23
		c-7.06,1.63-12.55,5.64-16.78,11.42c-0.75,1.03-1.68,1.58-2.83,1.72c-1.01,0.11-2.06-0.05-3.09-0.06c-0.38,0-0.87-0.04-1.13,0.17
		c-2.76,2.21-4.91,4.92-6.28,8.2c-0.32,0.76-0.04,1.22,0.86,1.19c1.44-0.06,2.89-0.23,4.33-0.14c1.37,0.09,2.23-0.45,2.91-1.55
		c0.26-0.41,0.67-0.72,1.13-1.19c0.45,1.22-0.22,1.63-0.72,2.15C14.51,30.02,14.11,30.58,13.67,31.1z"/>
	<path d="M13.67,31.1c0.44-0.53,0.84-1.08,1.32-1.57c0.51-0.52,1.17-0.93,0.72-2.15c-0.46,0.48-0.87,0.78-1.13,1.19
		c-0.68,1.09-1.54,1.63-2.91,1.55c-1.43-0.09-2.88,0.07-4.33,0.14c-0.9,0.04-1.17-0.43-0.86-1.19c1.37-3.28,3.52-5.98,6.28-8.2
		c0.26-0.21,0.74-0.17,1.13-0.17c1.03,0.01,2.07,0.17,3.09,0.06c1.15-0.13,2.08-0.69,2.83-1.72c4.23-5.79,9.71-9.79,16.78-11.42
		c0.99-0.23,2.06-0.3,3.08-0.23c2.19,0.15,3.17,1.23,3.25,3.44c0.11,2.98-0.89,5.69-2.21,8.28c-2.21,4.36-5.2,8.13-9.23,10.92
		c-2.03,1.41-2.57,3.27-2.15,5.37c0.28,1.41-0.21,2.2-1.05,3.1c-1.95,2.08-4.2,3.74-6.78,4.94c-1.34,0.62-1.68,0.39-1.63-1.05
		c0.05-1.41,0.14-2.81,0.11-4.22c-0.02-1.07,0.31-1.84,1.24-2.4c0.5-0.3,0.91-0.75,1.46-1.22c-1.16-0.62-1.54,0.13-2.05,0.6
		c-0.52,0.48-1.08,0.91-1.75,1.47c0.12,2.18-1.1,3.75-3.15,4.8c-0.8,0.41-1.46,0.48-1.49-0.82c-0.63,0.41-1.15,0.8-1.71,1.11
		c-1.63,0.92-3.35,1.15-5.14,0.56c-0.27-0.09-0.56-0.38-0.65-0.64C6.7,41.48,7.01,41.07,7.23,41c1.66-0.56,2.01-1.81,1.84-3.48
		c-1.1,0.01-0.93-0.8-0.81-1.55c0.49-2.88,2.62-4.63,5.58-4.6C13.78,31.28,13.72,31.19,13.67,31.1z M30.71,29.62
		c3.38-2.44,6.16-5.48,8.3-9.1c1.53-2.59,2.69-5.35,3.09-8.37c0.39-2.94-0.8-4.21-3.73-3.98c-0.37,0.03-0.74,0.05-1.1,0.13
		c-7.06,1.53-12.51,5.47-16.78,11.16c0.64,1.06,0.64,1.04-0.65,1.29c-0.2,0.04-0.49,0.31-0.51,0.5c-0.09,1-1,1.56-1.27,2.41
		c-0.54,1.74-0.96,3.53-1.35,5.31c-0.06,0.27,0.21,0.69,0.44,0.93c1.02,1.07,2.07,2.12,3.13,3.15c0.25,0.24,0.79,0.56,0.9,0.47
		c0.69-0.54,1.44-0.22,2.14-0.34c1.25-0.21,2.44-0.82,3.63-1.32c0.4-0.17,0.69-0.59,1.08-0.79c0.44-0.22,0.93-0.32,1.2-0.4
		c0.13-0.62,0.21-1.01,0.29-1.39C29.89,29.39,30.25,29.49,30.71,29.62z M20.87,42.76c0.07-0.01,0.19,0,0.28-0.04
		c2.82-1.33,5.21-3.21,7.23-5.57c0.13-0.16,0.26-0.38,0.26-0.57c0.02-1.48,0.01-2.97,0.01-4.4c-1.65,0.62-3.23,1.21-4.81,1.82
		c-0.18,0.07-0.47,0.26-0.46,0.37c0.1,1.24-1.03,1.5-1.66,2.15c-0.32,0.33-0.79,0.7-0.81,1.08C20.82,39.27,20.87,40.97,20.87,42.76z
		 M7.25,29.31c1.5,0,2.82-0.07,4.13,0.02c1.16,0.08,1.95-0.28,2.56-1.29c0.45-0.75,0.98-1.52,2.01-1.29
		c0.72-1.81,1.4-3.54,2.08-5.26c-1.42,0-2.87-0.01-4.33,0.01c-0.2,0-0.45,0.04-0.6,0.16C10.61,23.74,8.67,26.25,7.25,29.31z
		 M15.31,40.6c2.28-0.97,3.3-3.08,2.46-4.64c-0.73,0.42-1.43,1.02-2.22,1.2c-0.8,0.18-1.71,0-2.55-0.14
		c-0.18-0.03-0.47-0.61-0.39-0.82c0.45-1.27,0.99-2.51,1.5-3.76c-2.26-0.81-4.92,1.12-4.87,3.73c0.68-0.1,1.37-0.21,2.12-0.33
		c-0.53,0.82-1.24,1.45-1.34,2.16c-0.2,1.41-0.32,2.76-2.07,3.62c2.98,0.46,4.83-0.74,6.5-2.64C14.77,39.6,15.04,40.1,15.31,40.6z
		 M19.11,35.31c0.46-0.36,0.83-0.64,1.13-0.87c-1.57-1.52-3.05-2.95-4.58-4.43c-0.2,0.21-0.51,0.55-0.84,0.89
		c0.2,0.23,0.32,0.37,0.44,0.5C16.53,32.7,17.8,33.99,19.11,35.31z"/>
	<path class="st2" d="M30.71,29.62c-0.46-0.13-0.82-0.23-1.18-0.33c-0.08,0.39-0.16,0.78-0.29,1.39c-0.27,0.09-0.77,0.18-1.2,0.4
		c-0.39,0.2-0.68,0.62-1.08,0.79c-1.19,0.5-2.38,1.11-3.63,1.32c-0.7,0.11-1.45-0.21-2.14,0.34c-0.11,0.09-0.66-0.23-0.9-0.47
		c-1.07-1.02-2.12-2.07-3.13-3.15c-0.23-0.24-0.5-0.66-0.44-0.93c0.39-1.78,0.81-3.57,1.35-5.31c0.26-0.85,1.17-1.41,1.27-2.41
		c0.02-0.19,0.31-0.46,0.51-0.5c1.28-0.24,1.29-0.22,0.65-1.29c4.28-5.69,9.72-9.63,16.78-11.16c0.36-0.08,0.73-0.1,1.1-0.13
		c2.92-0.23,4.12,1.03,3.73,3.98c-0.4,3.02-1.56,5.78-3.09,8.37C36.87,24.14,34.09,27.19,30.71,29.62z M33.62,13.07
		c-2.29,0.02-4.2,1.97-4.19,4.28c0.01,1.96,1.49,3.39,3.48,3.36c2.32-0.04,4.21-1.98,4.17-4.29C37.06,14.41,35.66,13.05,33.62,13.07
		z"/>
	<path class="st2" d="M20.87,42.76c0-1.78-0.05-3.48,0.04-5.17c0.02-0.37,0.49-0.75,0.81-1.08c0.63-0.65,1.76-0.91,1.66-2.15
		c-0.01-0.11,0.28-0.3,0.46-0.37c1.58-0.61,3.16-1.2,4.81-1.82c0,1.43,0.01,2.92-0.01,4.4c0,0.19-0.13,0.42-0.26,0.57
		c-2.02,2.36-4.42,4.24-7.23,5.57C21.05,42.76,20.94,42.75,20.87,42.76z"/>
	<path class="st2" d="M7.25,29.31c1.42-3.06,3.36-5.57,5.85-7.66c0.14-0.12,0.4-0.16,0.6-0.16c1.45-0.01,2.91-0.01,4.33-0.01
		c-0.68,1.71-1.37,3.45-2.08,5.26c-1.02-0.22-1.56,0.55-2.01,1.29c-0.6,1.01-1.4,1.37-2.56,1.29C10.07,29.24,8.75,29.31,7.25,29.31z
		"/>
	<path class="st2" d="M15.31,40.6c-0.27-0.5-0.53-1-0.86-1.62c-1.67,1.9-3.52,3.1-6.5,2.64c1.76-0.86,1.87-2.21,2.07-3.62
		c0.1-0.72,0.81-1.35,1.34-2.16c-0.75,0.12-1.44,0.22-2.12,0.33c-0.05-2.61,2.62-4.55,4.87-3.73c-0.51,1.25-1.05,2.49-1.5,3.76
		c-0.08,0.21,0.21,0.79,0.39,0.82c0.84,0.14,1.75,0.32,2.55,0.14c0.79-0.18,1.48-0.78,2.22-1.2C18.6,37.52,17.59,39.63,15.31,40.6z"
		/>
	<path class="st2" d="M19.11,35.31c-1.31-1.32-2.58-2.61-3.85-3.91c-0.13-0.13-0.24-0.27-0.44-0.5c0.32-0.34,0.64-0.68,0.84-0.89
		c1.53,1.48,3.01,2.91,4.58,4.43C19.94,34.67,19.57,34.95,19.11,35.31z"/>
	<path d="M33.62,13.07c2.03-0.02,3.44,1.34,3.47,3.36c0.03,2.31-1.86,4.25-4.17,4.29c-1.99,0.03-3.47-1.4-3.48-3.36
		C29.43,15.04,31.34,13.09,33.62,13.07z"/>
</g>
</svg>
